<svg id="eHO72rCyITQ1" xmlns="http://www.w3.org/2000/svg" xmlns:xlink="http://www.w3.org/1999/xlink" viewBox="-10.262626 128.5625 2052.525253 1928.4375" shape-rendering="geometricPrecision" text-rendering="geometricPrecision" project-id="d2fcebed5f784cc1a7841a68e3efca29" export-id="e870d011aadc400186b870ab72495e1d" cached="false"><defs><linearGradient id="eHO72rCyITQ100-fill" x1="0.5" y1="0" x2="0.5" y2="1" spreadMethod="pad" gradientUnits="objectBoundingBox" gradientTransform="translate(0 0)"><stop id="eHO72rCyITQ100-fill-0" offset="0%" stop-color="rgba(255,255,255,0)"/><stop id="eHO72rCyITQ100-fill-1" offset="100%" stop-color="#010022"/></linearGradient></defs><g><g transform="translate(1183 1085)"><g><g transform="translate(3 208)"><path d="M199.883326,757c0,0-45.243712-141.295563-136.181138-270.647782s-77.671742-217.445037,0-240.137306s203.890365,44.294917,242.943855,135.816767C331.898655,441.210897,374.804123,628.371706,268.960535,757c-30.239484-.834004-69.077209,0-69.077209,0Z" fill="#017c7f" fill-rule="evenodd"/><path d="M180.80074,266.460237C125.13078,13.420475,221.50036,-21.299255,328.620701,9.339581s179.339641,163.965588,163,291.337611C466.681525,495.084959,320.447913,757,320.447913,757h-83.977213c0-158.333333-18.556653-321.846588-55.66996-490.539763Z" fill="#009ba0" fill-rule="evenodd"/><path d="M299.869545,92.339251c1.456463-.656734,3.160383-.055033,3.890895,1.343071l.096735.20235.458923,1.055042.571134,1.356028c.222538.535499.458721,1.111599.708027,1.728191l.383737.955246c1.679682,4.207601,3.548502,9.219353,5.558911,15.025435c5.732911,16.556705,11.461511,36.172732,16.805341,58.769394c12.637863,53.439859,21.153588,114.943371,23.654793,184.117589c2.241772,61.999266-1.923012,121.556109-12.592332,187.764763l-.383812,2.367439c-9.272508,56.854138-22.407634,115.426825-46.271479,210.252787-.404355,1.606755-2.034683,2.581493-3.641438,2.177138s-2.581493-2.034682-2.177138-3.641437l2.11552-8.423662c22.492626-89.753915,35.09155-146.385105,44.052775-201.330624c10.891785-66.782694,15.15532-126.626032,12.901822-188.949598-2.486767-68.774939-10.948599-129.889219-23.497656-182.953556l-.692963-2.904483c-5.096875-21.175708-10.521992-39.626152-15.943165-55.282554l-.620366-1.779183c-1.743883-4.966276-3.368949-9.296938-4.841206-12.984939l-.55157-1.368765c-.176431-.433517-.345363-.844278-.506576-1.23224l-.54881-1.303144-.431772-.992293c-.681057-1.510407-.008736-3.286939,1.50167-3.967995Z" fill="#090e2b"/><path d="M589.575739,282.556489c160.844469-8.192588,171.067336,125.330327,150.202757,180.307949-24.615659,64.861622-98.470892,108.095799-157.474278,133.77832C443.495397,657.062349,408.155852,757,408.155852,757h-121.535151c0,0,23.191748-460.193811,302.955038-474.443511Z" fill="#f47c21" fill-rule="evenodd"/><path d="M613.533995,384.77167c1.534703-.624381,3.284987.11358,3.909368,1.648283s-.113579,3.284987-1.648282,3.909369C475.369379,447.460406,387.980539,569.583887,353.571426,757.085934c-.299061,1.62964-1.862582,2.708288-3.492223,2.409228s-2.708289-1.862582-2.409228-3.492223c34.756924-189.397337,123.397308-313.269816,265.86402-371.231269Z" fill="#090e2b"/></g></g></g><g transform="translate(76.125 1255)"><g><g transform="translate(150 169)"><path d="M322.77787,249.880468c-.430465-1.85939-2.093973-3.25036-4.085559-3.258057h-.034129l-162.31813-.622691h-.014312c-2.202965-.009568-4.197854,1.502355-4.710889,3.737803L74.069596,627.630966c-.334683,1.464641.569182,2.932581,2.035624,3.286646c1.477451.356264,2.96481-.54979,3.322613-2.025427l80.735756-373.209229l155.162071-.594873l80.244741,373.804102c.352298,1.464641,1.823143,2.377293,3.296191,2.036423c1.481854-.341969,2.404435-1.817607,2.062045-3.297642L322.77787,249.880468Z" fill="#090e2b" fill-rule="evenodd"/><path d="M265.77787,249.880468c-.430465-1.85939-2.093973-3.25036-4.085559-3.258057h-.034129l-162.31813-.622691h-.014312c-2.202965-.009568-4.197854,1.502355-4.710889,3.737803L17.069596,627.630966c-.334683,1.464641.569182,2.932581,2.035624,3.286646c1.477451.356264,2.96481-.54979,3.322613-2.025427l80.735756-373.209229l155.162071-.594873l80.244741,373.804102c.352298,1.464641,1.823143,2.377293,3.296191,2.036423c1.481854-.341969,2.404435-1.817607,2.062045-3.297642L265.77787,249.880468Z" fill="#090e2b" fill-rule="evenodd"/><path d="M58.192149,41.219646c8.116391,40.199384,53.837913,165.704597,78.505467,179.82325c24.667555,14.117495,168.725933,11.366928,185.624415,12.776941c16.898483,1.41117,35.205846,11.284735,32.38924,29.620693-2.816606,18.337115-9.857544,12.694748-59.145267,12.694748s-164.760493.819613-164.760493.819613-59.797119,3.710256-84.410352-56.167835C23.853062,165.945883,3.908567,64.747527,1.091961,46.410412C-1.72349,28.073296,0.311817,5.584861,14.264248,1.020262c10.563718-3.455574,35.81151,0,43.927901,40.199384Z" fill="#424242" fill-rule="evenodd"/></g></g></g><g transform="matrix(1 0 0-1 0 2053.25)"><path d="M0.625861,-2l1015.874999.25c1.933.000476,3.49914,1.567865,3.49914,3.500861c0,1.868564-1.46511,3.394766-3.30882,3.494007l-.19204.005132L0.624139,5C-1.308858,4.999524,-2.875,3.432135,-2.875,1.499139c0-1.868564,1.465113-3.394766,3.308825-3.494007L0.625861,-2Z" fill="#090e2b"/><path d="M2032.5,-2.75c1.933,0,3.5,1.567003,3.5,3.5c0,1.868563-1.46428,3.395126-3.30796,3.494821L2032.5,4.25h-693c-1.933,0-3.5-1.567003-3.5-3.5c0-1.868563,1.46428-3.395126,3.30796-3.494821L1339.5,-2.75h693Z" fill="#090e2b"/></g><g transform="translate(282 117)"><g><g transform="translate(1 17)"><path d="M1072.3832,793.4326h-1003.773c-12.765,0-23.112-10.347-23.112-23.112v-708.705c0-12.765,10.347-23.115,23.112-23.115h1003.773c12.765,0,23.112,10.35,23.112,23.115v708.705c0,12.765-10.347,23.112-23.112,23.112Z" fill="#090e2b" fill-rule="evenodd"/><path d="M1029.885,757.932h-1003.773C13.347,757.932,3,747.585,3,734.82L3,26.115C3,13.35,13.347,3,26.112,3h1003.773c12.765,0,23.112,10.35,23.112,23.115v708.705c0,12.765-10.347,23.112-23.112,23.112Z" fill="#fff" fill-rule="evenodd"/><path d="M1029.885,0L26.112,0C11.690598,0,0,11.692694,0,26.115v708.705c0,14.421854,11.690146,26.112,26.112,26.112h1003.773c14.42185,0,26.112-11.690146,26.112-26.112v-708.705c0-14.422306-11.6906-26.115-26.112-26.115ZM26.112,6h1003.773c11.10745,0,20.112,9.006162,20.112,20.115v708.705c0,11.108146-9.00385,20.112-20.112,20.112h-1003.773C15.003854,754.932,6,745.928146,6,734.82L6,26.115C6,15.006162,15.004547,6,26.112,6Z" fill="#090e2b"/><path d="M617.1762,372.0626h-419.394c-37.161,0-67.284-30.123-67.284-67.284c0-37.155,30.123-67.278,67.284-67.278h419.394c37.158,0,67.281,30.123,67.281,67.278c0,37.161-30.123,67.284-67.281,67.284Z" fill="#ffb201" fill-rule="evenodd"/><path d="M854.382,370.2114v0c-37.158,0-67.284-30.123-67.284-67.284c0-37.155,30.126-67.278,67.284-67.278s67.281,30.123,67.281,67.278c0,37.161-30.123,67.284-67.281,67.284Z" fill="#c7d2f2" fill-rule="evenodd"/><g transform="translate(945.573 53.1295)"><path d="M43.81802,1.818019c1.757359-1.757359,4.606601-1.757359,6.363961,0c1.702441,1.702442,1.755643,4.429591.159603,6.196077l-.159603.167885-42,42c-1.75736,1.757359-4.606602,1.757359-6.363962,0-1.702441-1.702442-1.755643-4.429591-.159603-6.196077l.159603-.167884L43.81802,1.818019Z" fill="#fff"/><path d="M1.818019,1.818019C3.520461,0.115578,6.24761,0.062376,8.014096,1.658416l.167885.159603l42,42.000001c1.757359,1.757359,1.757359,4.606601,0,6.363961-1.702442,1.702441-4.429591,1.755643-6.196077.159603l-.167884-.159603-42.000001-42c-1.757359-1.75736-1.757359-4.606602,0-6.363962Z" fill="#fff"/></g><path d="M727.2462,457.5006c9.941125,0,18,8.058875,18,18c0,9.830669-7.880783,17.820682-17.669335,17.997024l-.330665.002976h-578.748c-9.941125,0-18-8.058875-18-18c0-9.830669,7.880783-17.820682,17.669335-17.997024l.330665-.002976h578.748Z" fill="#c7d2f2"/><path d="M479.0502,564.5006c9.941125,0,18,8.058875,18,18c0,9.830669-7.880783,17.820682-17.669335,17.997024l-.330665.002976h-330.552c-9.941125,0-18-8.058875-18-18c0-9.830669,7.880783-17.820682,17.669335-17.997024l.330665-.002976h330.552Z" fill="#c7d2f2"/></g></g></g><g transform="translate(829.958252 623)"><g><g transform="translate(74 54)"><rect width="903" height="664" rx="64" ry="64" transform="translate(48 36)" fill="#090e2b" fill-rule="evenodd"/><rect width="903" height="664" rx="64" ry="64" transform="translate(3 3)" fill="#fff" fill-rule="evenodd"/><path d="M842,0L67,0C29.996922,0,0,29.996922,0,67v536c0,37.003078,29.996922,67,67,67h775c37.003078,0,67-29.996922,67-67v-536c0-37.003078-29.996922-67-67-67ZM67,6h775c33.68937,0,61,27.31063,61,61v536c0,33.68937-27.31063,61-61,61h-775c-33.68937,0-61-27.31063-61-61L6,67C6,33.31063,33.31063,6,67,6Z" fill="#090e2b"/><g transform="matrix(-.9251 0 0 1.026401 904.792238-9.343886)"><path id="eHO72rCyITQ40" d="M673.652207,196.061892c51.354243-12.611251,98.995375,44.870528,144.739184,169.876221c1.138749,3.111898-.460805,6.557729-3.572704,7.696478s-6.557729-.460805-7.696478-3.572704c-43.756781-119.57567-87.898094-172.834715-130.608148-162.346249-23.484456,5.767164-42.969413,20.601825-61.012391,44.801601l-1.244679,1.682735c-12.751546,17.379659-22.218801,34.709178-40.508267,72.116864l-6.230689,12.763474c-18.634606,38.013077-28.329343,55.430796-42.225026,73.878192-19.878096,26.389426-41.982729,42.759823-69.056643,48.77026-19.314537,4.287848-35.058166-3.496232-48.344838-21.423658l-.401875-.546358c-9.657507-13.228777-16.588246-28.267289-28.7957-59.616102l-3.78178-9.730923c-11.652297-29.86941-18.490726-44.745315-27.583365-57.779196-11.475525-16.449637-23.848913-24.169988-39.002891-23.253828-55.738707,3.369779-115.779433,66.192896-178.988908,189.241566-1.514141,2.947549-5.131055,4.109555-8.078603,2.595415s-4.109555-5.131055-2.595415-8.078603c64.995292-126.525086,127.597124-192.027994,188.938767-195.736508c19.694847-1.190685,35.593804,8.594645,49.158506,27.781861l.410338.584307c9.617516,13.786266,16.618598,28.864694,28.176631,58.379136l5.229534,13.438538c11.261123,28.812889,17.822702,42.962262,26.338203,54.731726l.266753.367034c10.794933,14.786816,22.15576,20.505013,36.453947,17.3308c23.970713-5.321523,43.781409-19.993061,62.072357-44.275449l1.262219-1.689398c12.791243-17.263151,22.294623-34.548482,40.408031-71.547666l6.218449-12.740164c18.606271-38.008557,28.244486-55.489894,41.849043-73.831162l.43555-.585678c19.578828-26.259702,41.271162-42.774927,67.770888-49.282562Z" transform="matrix(.984808 0.173648-.087489 1 36.697311-81.333089)" opacity="0" fill="#f47c21"/><path id="eHO72rCyITQ41" d="M781.460434,208.362654c.838581-3.205846,4.117237-5.124893,7.323083-4.286311s5.124892,4.117237,4.286311,7.323082c-37.204094,142.228997-85.014952,209.007824-145.197303,197.49369-26.054212-4.984712-44.261635-4.063133-57.789669,1.905521-10.41714,4.596108-17.699238,11.468902-27.922501,25.081859l-1.182431,1.586957-6.093266,8.31983c-2.62262,3.568705-4.727383,6.351909-6.884614,9.069429-8.99915,11.336461-17.874833,20.027735-28.984945,27.536854-13.438192,9.082626-29.523146,15.834089-49.336351,20.232642-18.257942,4.053282-33.915092,1.986576-48.379397-5.543488-10.768163-5.605865-19.317154-12.847317-32.736608-26.559378l-6.276506-6.46863c-13.524324-13.944798-21.360981-20.930099-31.204262-26.825699-12.513668-7.495019-25.835022-10.933979-41.656135-9.977486-57.122235,3.453422-117.660712,31.658722-181.588396,84.845811-2.547345,2.119362-6.330459,1.772413-8.449821-.774933s-1.772413-6.330459.774933-8.449821c65.743647-54.69795,128.581011-83.974317,188.539126-87.599187c18.291489-1.105843,34.002604,2.950043,48.546266,11.66092l.978615.592761c10.20799,6.25348,18.364541,13.490414,31.41583,26.879318l6.289385,6.486118l1.158977,1.188156c12.601399,12.878512,20.404306,19.492806,29.749824,24.358047c11.962503,6.227635,24.736945,7.913831,40.237473,4.472697c18.375015-4.079272,33.060313-10.243247,45.217353-18.459966c9.988248-6.750873,18.013452-14.609337,26.305963-25.055627l1.085679-1.379503c1.452075-1.86083,2.938244-3.827997,4.651503-6.145898l6.798231-9.276693.433918-.587186c11.86558-15.993965,20.576682-24.410736,33.6682-30.186797c16.038034-7.076081,36.633946-8.118555,64.888576-2.712858c51.240507,9.803374,95.606403-52.163773,131.332959-188.744231Z" opacity="0" fill="#0b579f"/></g><circle r="25.5" transform="translate(689.5 200.5)" fill="#a19c98" fill-rule="evenodd"/><rect width="709" height="2" rx="0" ry="0" transform="translate(93 546)" fill="#c7d2f2"/></g></g></g><g transform="translate(-67 557)"><g><g transform="translate(179 940)"><g><path d="M410.615323,399.49997c0,0-10.257354,72.449715-14.443784,103.405712-4.221568,31.219961,70.877161.831034,70.877161.831034s-13.539135-19.293426-13.743939-24.578719C453.100961,473.870697,476.218696,412,476.218696,412l-65.603373-12.50003Z" fill="#ca8f67" fill-rule="evenodd"/><path d="M561.035706,0c36.862243,16.847707,74.117912,59.388481,41.553323,139.128809s-109.194726,272.743661-121.239581,281.426517C469.305594,429.239182,405.784608,412,405.784608,412s6.947989-81.055495,20.750276-160.757392c10.106832-58.362337,31.417551-100.916746,31.417551-100.916746s-171.411598,24.458406-213.969895-4.249481C188.124727,108.397247,229.480836,6.860539,261.586066,-5.710644C302.858588,-21.871389,490.854841,-32.07582,561.035706,0Z" fill="#090e2b" fill-rule="evenodd"/><path d="M559.105053,537.550495c-5.386216-16.680996-44.443052-27.697574-72.645253-36.036083-9.493294-2.808342-22.756839-16.679007-28.913947-16.512933-8.963996.243641-.178438,18.896643-30.183062,17.272697-7.943491-.429605-8.510883-8.789992-25.771236-10.69338-2.804882-.308281-7.092403-.853243-10.795489,5.813587-2.064065,3.71628-10.513798,37.269207-2.218444,50.950926c58.08653,1.500633,117.835138.0179,169.44277-.463417c5.039365-.047733,2.462041-6.063195,1.084661-10.331397" fill="#f47c21" fill-rule="evenodd"/><path d="M654.970564,412c0,0,10.559969,54.509706,17.625647,63.377601c7.066678,8.865892,43.732709,18.843777,45.378731,24.320594C719.618961,505.175012,639.820958,518,639.820958,518L591,416.698422L654.970564,412Z" fill="#ca8f67" fill-rule="evenodd"/><path d="M790.105053,534.5497c-5.386216-16.680059-44.443052-27.696675-72.645253-36.036208-9.493294-2.807357-22.756839-16.679065-28.913947-16.511996-8.963996.242648-.178438,18.896709-30.183062,17.272757-7.942489-.429606-8.509881-8.791016-25.771236-10.693416-2.804882-.309277-7.092403-.853246-10.795489,5.812612-2.064065,3.716293-10.513798,37.269337-2.218444,50.952097c58.08653,1.500639,117.835138.016906,169.44277-.464412c5.039365-.047734,2.462041-6.063216,1.084661-10.331434" fill="#f47c21" fill-rule="evenodd"/><path d="M722.704751,510.429527c3.687633-7.425253,5.300353-8.716388,3.728298-9.885588-3.760037-2.795655-22.86174,5.841082-24.363374,10.97907-1.124738,3.850787,11.594522-7.294468,21.750888-8.957308-4.16173,3.800636-8.041779,15.454282-3.946502,13.130633c19.952695-11.314391,23.09978-8.689838,23.124576-9.11071.118028-2.000128-7.432794-3.618718-20.293886,3.843903" fill="#f47c21" fill-rule="evenodd"/><path d="M180.126096,77c11.964337,61.955221,67.163918,84.21191,115.062953,82.361921c73.166239-2.825876,147.749939-35.319423,172.962166-46.178892-2.221106,15.981118,9.653381,106.841705,29.476931,148.891117s84.380749,168.549067,84.380749,168.549067s72.841432.426871,75.956178-17.254175c2.049175-11.631186-66.334961-336.519568-88.956178-392.772846C556.018259,-11.708251,513.975789,-25.648736,427.5,-33c-86.853873-7.383404-213.469718,6.228424-213.469718,6.228424s-45.868522,41.816355-33.904186,103.771576Z" fill="#090e2b" fill-rule="evenodd"/><path d="M491.704751,514.429893c3.687633-7.425058,5.300353-8.716158,3.727307-9.88631-3.760038-2.794599-22.860749,5.84191-24.362383,10.978779-1.124738,3.850686,11.594522-7.294275,21.750888-8.956088-4.16173,3.800536-8.042771,15.452891-3.946502,13.130286c19.952695-11.315075,23.09978-8.690591,23.124576-9.111453.118028-2.000075-7.432794-3.618621-20.293886,3.844786" fill="#ffb201" fill-rule="evenodd"/><path d="M546.8316,554.3915l-139.815,2.466c-9.354.374-23.346-2.843-24.699-10.614-1.011-5.806,1.237-18.448,1.703-19.289c3.257-5.86,31.012-.916,39.097,18.873c51.014,3.822,137.891.085,137.891.085s1.304,7.681-14.177,8.479" fill="#090e2b" fill-rule="evenodd"/><path d="M777.7223,550.7851l-139.815,2.466c-9.353.374-23.346-2.842-24.699-10.613-1.01-5.806,1.237-18.448,1.704-19.289c3.256-5.86,31.011-.916,39.096,18.873c51.014,3.822,137.892.085,137.892.085s1.303,7.681-14.178,8.478" fill="#090e2b" fill-rule="evenodd"/></g></g><g transform="matrix(1 0 0 1.00105 243 170)"><g><path d="M286,448c13.897744,7.921341,35.104762,24.380594,47.718296,62.851246c10.601503,32.330962,34.85213,79.012222,35.63609,83.705572C381.885714,599.248165,432,624.250335,432,624.250335s-34.537343,55.749665-37.382456,55.749665-19.691228-.867804-36.006015-2.150993c-53.264161-4.189883-55.996993-40.689709-58.638597-55.578506C291.423559,574.087849,289.988972,453.178799,286,448" fill="#0b579f" fill-rule="evenodd"/><path d="M203.679151,373c0,0,11.55018,57.303881,3.784765,63.256492C203.587205,439.227797,187,443.605246,187,443.605246s40.844881,32.524339,65.813137,33.361424c24.968257.838086,41.652405-14.357473,38.888037-19.866038-4.137557-8.242846-33.388284-15.602602-34.480639-22.938355-1.245265-8.367859-.699587-44.988617-.699587-44.988617L203.679151,373Z" fill="#ca8f67" fill-rule="evenodd"/><path d="M126.184505,468.342476c-1.182319,10.551823-12.748649,141.816459,2.870345,161.482631c18.704214,23.550155-8.792868,99.004763-20.695005,118.211463-20.70606,33.413271-44.043159,93.465964,31.954131,44.431151c68.998132-44.51883,161.408591-49.358775,179.475964-54.692984c6.142897-1.813628,1.923655-7.496927,1.525238-11.410708C316.679522,680.826473,327.909685,585.790688,328,553.731805c.055934-20.612909-22.820023-94.737426-40.819017-105.353934-3.586547-2.115486-21.280107-9.649171-21.280107-6.703748c0,14.469835-1.158374,34.992905-8.036926,34.992905-17.521913,0-62.850352-31.807997-69.873086-34.992905-16.101715,3.257341-60.455138,14.621998-61.806359,26.668353Z" fill="#0b579f" fill-rule="evenodd"/><path d="M306.704585,490.534972c9.669918,18.612218,20.068928,38.225253,21.019299,59.358532c1.201219,26.662799-1.849755,57.127707-2.781771,83.849554-.275322,6.978706-.531269,13.961415-.545545,20.938119.012236.406332-.684226.441361-.679128.006005-.665871-32.505576,3.390539-72.153993,1.911958-104.703605-.946292-20.80501-11.192346-40.94948-19.609039-59.898973-.145818-.267218.534329.158129.684226.450368" fill="#090e2b" fill-rule="evenodd"/><g transform="translate(272 506)"><path d="M128.369769,133.885873l-119.633,10.129c-2.041.169-8.454,2.848-8.675,4.883c0,0-.947,5.246,4.575,5.246h123.733v-20.258Z" fill="#fff" fill-rule="evenodd"/><path d="M291.427369,154.143673h-187.302l51.679-137.257c3.137-7.749,9.779-15.495,20.26-15.495l156.593.118c16.831-.122,18.943,6.124,15.324,15.965-10.425,28.341-37.238,107.693-46.456,129.927-1.694,4.083-5.677,6.742-10.098,6.742" fill="#fff" fill-rule="evenodd"/><path d="M331.825869,0.472773c-43.237-.104-103.229-.192-146.575-.301-15.107-.939-24.483,1.619-30.742,16.543-13.962,37.198-30.115,80.624-43.652,118.117l-96.034,8.667c9.117-.731,96.557-7.032,96.812-7.836c15.378-38.343,31.539-83.335,46.896-121.557c6.286-11.587,14.97-11.953,26.72-11.481l32.573-.017c21.31.105,77.148-.203,97.722-.053c7.4.861,30.721-3.245,32.751,6.233.375,9.007-5.143,18.001-7.771,26.62-2.375,7.79-10.726,30.759-10.726,30.759-8.543,24.094-18.144,53.058-27.228,76.711-3.417,10.805-7.95,10.911-18.11,10.654-5.139.039-18.522.6-23.808.646-.636.009-1.273.443-.622.461c9.355-.121,23.423.379,32.639.078c6.164-.347,9.567-6.04,11.221-11.32c9.82-25.322,18.65-51.01,27.667-76.616c3.493-10.586,12.359-36.074,16.295-46.047c6.309-15.98-1.117-20.748-16.028-20.261" fill="#090e2b" fill-rule="evenodd"/></g><path d="M258.796,651.4745c-.365.029-.581.048-.592.051l.592-.051Z" fill-rule="evenodd"/><path d="M471,659.77464h33.34249c11.824314.218451,5.638612-23.965889,18.557105-21.613496c11.029637,2.007524,10.531467,8.476099,9.386373,21.518429c2.233282-2.792329,6.477217-3.711643,7.929798-2.763c2.077541,1.357228-.247588,1.758733-3.754749,7.379799-4.055248,6.497904-15.582058,12.575088-29.321184,13.730046C503.004717,678.37331,479.248268,682,479.248268,682L471,659.77464Z" fill="#ca8f67" fill-rule="evenodd"/><path d="M276.484788,647.782529c0,0,9.266851-6.602205,17.215183-5.668825c10.603475,1.242827,11.448294-3.538983,14.159758.628974.596401.915237-1.274268,3.85347-6.185277,4.945101-6.628806,1.472645-3.850963,5.56198-3.850963,5.56198s23.022304,5.490414,26.259768,6.068989c1.788198.319526,2.269946,5.40776-11.248152,9.419481-7.051215,2.092547-17.127685,2.147985-29.005427,2.547141C280.525835,671.398263,242.530133,683,242.530133,683l-2.342359-18.932705L239,644.393733l37.484788,3.388796Z" fill="#ca8f67" fill-rule="evenodd"/><path d="M395,680.024576c0,0,95.408936,3.856284,101.352355,2.788557C502.294776,681.745407,490.25232,660,490.25232,660h-86.206512L395,680.024576Z" fill="#0b579f" fill-rule="evenodd"/><g transform="translate(471 571)"><path d="M35.171962,15.0154h-.015c-4.264,0-6.137-1.792-6.874-2.861-.548-.796-.348-1.886.448-2.434.795-.549,1.886-.347,2.433.447.591.857,2.047,1.348,3.994,1.348h.013c2.99,0,5.076-1.126,6.055-1.797.798-.549,1.886-.344,2.432.452.547.797.345,1.886-.452,2.433-2.264,1.556-5.118,2.412-8.034,2.412" fill="#090e2b" fill-rule="evenodd"/><path d="M26.922962,2.951c-.625,1.631-2.446,2.952-4.067,2.952-1.622,0-2.43-1.321-1.805-2.952.625-1.63,2.446-2.951,4.067-2.951s2.43,1.321,1.805,2.951" fill="#090e2b" fill-rule="evenodd"/><path d="M57.873162,2.951c-.625,1.631-2.446,2.952-4.067,2.952-1.622,0-2.43-1.321-1.805-2.952.625-1.63,2.445-2.951,4.067-2.951c1.621,0,2.429,1.321,1.805,2.951" fill="#090e2b" fill-rule="evenodd"/></g><path d="M187.019737,561.172044c-8.489546,22.380259-55.645037,72.356807-55.645037,72.356807s110.309167,11.446484,126.604022,11.444485c.378579,5.728739-4.420078,49.209985-4.420078,49.209985-48.005544,6.801128-200.405842,26.46993-212.474403-13.810138-25.145001-83.921224,73.521132-198.43703,86.189026-213.922214c17.744241-21.691651,71.100827,64.788116,59.74647,94.721075" fill="#0b579f" fill-rule="evenodd"/><path d="M257.714312,644.434477c-42.355367-2.011968-80.945412-9.03743-123.397865-12.769676c14.953192-16.010129,29.486013-32.49214,41.961019-50.514237c4.276773-6.357461,8.160199-12.672114,10.705445-19.949445.078069-.231959.687606-2.117494.455402-2.201119-9.911745,20.201314-26.19411,39.575343-41.606707,56.385879-5.175566,5.587915-10.45022,11.111121-15.825962,16.479024-.888784.836246-2.111863,2.332529.968855,2.537608c32.549716,2.170258,65.143471,6.230033,97.623125,9.259434c10.885604.793438,16.589636,1.298172,27.538296,1.338055c1.760553.006907,2.242978-.581452,1.578392-.565523" fill="#090e2b" fill-rule="evenodd"/><path d="M254.944007,679c-.517607,0-4.379152,15.198599-5.567208,15.362446-40.14241,5.536115-83.375558,11.302577-124.052843,10.045847-.762879-.077608-.046809.651706.789768.733293c29.876753,3.253555,94.780185-3.655522,104.542241-5.545967c18.198537-3.524186,19.757582-3.250685,20.538387-4.482458C254.039194,684.371054,255.289079,679,254.944007,679Z" fill="#090e2b" fill-rule="evenodd"/></g></g><g transform="translate(341 346)"><g><path d="M240.4603,89.8187c0,0,6.663,24.333,5.22,34.368-1.878,13.054-12.227,11.92-10.842,16.216c4.734,14.69-8.438,19.8-8.438,19.8s-2.74-14.217-2.49-28.509c.251-14.293-2.256-24.573-2.256-24.573l18.806-17.302Z" fill="#e3e4e6" fill-rule="evenodd"/><path d="M192.5908,267.0274c31.652-2.539,45.429409-20.32558,46.948-37.544c1.965527-22.285969-3.533-38.918-6.348-55.223-9.761-56.519,5.916-67.607-46.037-78.032-27.22-5.461-87.164,1.727-101.874,36.538-5.749,13.605,3.391,37.553,4.995,57.149c4.179,51.064,63.826,80.2,102.316,77.112Z" fill="#ca8f67" fill-rule="evenodd"/><path d="M123.8589,41.6834c-37.287,5.753-45.698,30.049-47.597,40.722-.779-3.243-1.325-6.842.183-9.492.543-1.058-1.112-1.892-1.635-.826-2.113,4.491-2.106,9.528-1.007,14.273-4.051-.627-8.279.003-11.833,2.134-.811.481-.068,1.745.749,1.286c2.387-1.025,5.017-1.305,7.588-1.009-4.649,1.689-11.325,5.537-15.967,14.249-4.996,9.377-6.554,23.126-4.387,33.964c4.111,20.555,20.974,28.471,18.451,33.365-7.334,14.223.934,38.082,10.731,48.079c13.825,14.107,28.729,16.965,28.983.915.255-16.049-4.505-46.059-.404-48.916c8.156,10.089,11.894,11.329,12.828,4.844c1.915-13.313-2.521-19.63-7.363-26.705-6.405-9.362,18.376-12.555,18.674-27.93c3.756,4.097,6.583,11.99,21.349,16.058c12.41,3.419,27.677,3.513,39.882-14.153c9.219,15.708,31.013,9.469,37.702,7.749c35.627-9.157,22.698-76.364-19.472-69.583-26.853,4.318-52.328-24.445-87.455-19.024Z" fill="#e3e4e6" fill-rule="evenodd"/><path d="M113.767,179.4916c-4.507-9.765-12.936-18.005-27.304-15.005-14.864,3.105-16.675,33.289,9.722,44.209c8.15,3.371,11.057,1.736,13.294-.485c5.252-5.217,6.309-24.339,4.288-28.719" fill="#ca8f67" fill-rule="evenodd"/><path d="M89.6861,174.4214c.599.077,1.191.187,1.775.334c1.167.291,2.302.71,3.393,1.227c2.173,1.049,4.169,2.539,5.726,4.391.432.425.748.945,1.11,1.425.356.484.699.974.964,1.513.283.524.577,1.042.838,1.573l.629,1.651.305.824.202.851c.134.565.268,1.129.383,1.693.172,1.139.261,2.283.345,3.409.029.398-.269.744-.666.773-.33.024-.624-.177-.732-.474l-.033-.092c-.37-1.027-.625-2.064-.997-3.056-.218-.485-.418-.971-.617-1.454l-.299-.723-.377-.681-.734-1.355-.871-1.253c-.266-.432-.601-.809-.941-1.178-.348-.361-.621-.787-1.014-1.1-1.401-1.419-3.077-2.508-4.846-3.403-.443-.224-.904-.412-1.357-.623-.466-.173-.929-.367-1.402-.528-.923-.332-1.969-.599-2.817-.789l-.172-.038c-.832-.187-1.355-1.012-1.168-1.843.16-.713.791-1.199,1.491-1.205.71-.006,1.271.042,1.882.131Z" fill="#090e2b" fill-rule="evenodd"/><path d="M99.0443,183.8384c-.089-.029-.258-.045-.402-.07-.333-.018-.686-.03-1.054.025-.73.086-1.461.31-2.136.636-.68.316-1.3.762-1.854,1.276-.573.493-1.036,1.125-1.486,1.75l-.063.087c-.691.962-2.032,1.18-2.993.488-.962-.692-1.18-2.032-.488-2.994.048-.067.109-.141.164-.201.744-.806,1.521-1.59,2.454-2.214.909-.638,1.91-1.167,2.98-1.505c1.066-.347,2.181-.533,3.317-.514.565,0,1.147.083,1.735.21.308.091.599.164.938.326.311.152.728.325,1.193.94.437.648.267,1.527-.38,1.965-.647.437-1.527.268-1.965-.379.157.263.168.182.04.174Z" fill="#090e2b" fill-rule="evenodd"/><path d="M145.0532,259.7084c-3.555-1.87-12.562-6.956-14.529-9.341-1.026-1.243.466.011,2.193,1.005c2.298,1.324,11.402,6.474,22.745,10.187.984.322,7.261,2.087,7.451,2.405.177.297-.353.916-1.07.909-4.823-.043-12.43-2.872-16.79-5.165Z" fill="#090e2b" fill-rule="evenodd"/></g></g><g transform="translate(462 479)"><g><path d="M93.917,85.9779c-15.629-.628-26.577-1.068-37.098-1.49-3.27-.132-6.146,5.586-.525,13.081c7.965,10.62,28.597,14.307,36.987,1.485c4.274-6.53,4.029-12.939.636-13.076" fill="#fff" fill-rule="evenodd"/><path d="M82.7872,55.7084c4.041,3.775,14.174,18.938,5.041,21.131-1.886.452-10.507.672-9.236-1.202c1.013-1.494,7.385-.613,8.306-3.452c1.21-3.73-3.186-11.033-5.926-16.042-.471-.863,1.18-1.176,1.815-.435" fill="#090e2b" fill-rule="evenodd"/><path d="M63.278764,47.50056c.619,7.646-9.006,12.513-17.171,8.693-4.206-1.966-6.349-4.927-5.324-6.164.656-.792,2.527.334,3.15.704c8.276,4.921,14.832.479,16.833-3.928.782-1.72,2.313-1.762,2.512.695Zm41.2354-5.3018c-.648,3.104-1.854,4.674-3.374,5.778-4.431,3.217-11.66-.003-13.042-2.968-1.034-2.217.407-2.271,2.095-1.22c2.677,1.67,5.224,2.012,6.909,1.693c3.238-.611,4.777-3.869,5.943-5.211.634-.729,1.974-.488,1.469,1.928Z" transform="matrix(.99863 0.052336-.052336 0.99863 2.64909-3.73167)" fill="#090e2b" fill-rule="evenodd"/><path d="M62.79355,24.251993c3.298,3.247,2.604,8.75-1.66,7.656-11.807-6.182-22.493-7.869-32.748,1.018-3.685,3.194-5.599.541-4.42-2.747.84-2.342,4.451-6.653,7.476-8.287c9.911-5.357,24.158-4.722,31.352,2.36Zm43.7744-7.3227c1.852,1.412,3.084,4.221.083,4.99-1.074.276-12.376-3.377-19.926,5.525-1.695,1.999-5.531,1.528-5.151-1.84.978-8.642,15.615-15.822,24.994-8.675Z" transform="matrix(.99863 0.052336-.052336 0.99863 1.35648-3.42313)" fill="#090e2b" fill-rule="evenodd"/></g></g><g transform="translate(462 484)"><g><path d="M68.996048,36.98834C68.735541,53.055826,55.629572,66,39.5005,66C23.207674,66,10,52.793173,10,36.5005C10,20.207659,23.207843,7,39.5005,7C55.629405,7,68.735538,19.944989,68.996048,36.012656L69,36.5005l-.003952.48784Zm-3.999464-.909537C64.771397,22.189757,53.442348,11,39.5005,11C25.416969,11,14,22.416811,14,36.5005C14,50.583977,25.416756,62,39.5005,62c13.942059,0,25.270901-11.188985,25.496084-25.077809L65,36.5005l-.003416-.421697Z" fill="#090e2b" fill-rule="evenodd"/><path d="M128.99645,31.938229C128.762436,46.371751,116.989294,58,102.5,58C87.864349,58,76,46.135651,76,31.5s11.864349-26.5,26.5-26.5c14.489294,0,26.262436,11.628249,26.49645,26.061771L129,31.5l-.00355.438229Zm-3.999464-.810311C124.798295,18.873026,114.802247,9,102.5,9C90.073488,9,80,19.073488,80,31.5s10.073488,22.5,22.5,22.5c12.302247,0,22.298295-9.873026,22.496986-22.127918L125,31.5l-.003014-.372082Z" fill="#090e2b" fill-rule="evenodd"/><path d="M78.606085,19.859821c1.093752.165578,1.855636,1.253619,1.701716,2.430208s-1.165358,1.996176-2.25911,1.830599c-4.101943-.620972-9.603906,1.24097-11.478291,1.8947s-2.723714.14309-3.160959-.948028.085184-2.524035,1.099482-2.994396s9.401335-2.923959,14.097162-2.213083Z" transform="matrix(.996195 0.087156-.087156 0.996195 2.27937-6.16939)" fill="#090e2b" fill-rule="evenodd"/></g></g></g></g></g><rect id="eHO72rCyITQ100" style="mix-blend-mode:multiply" width="2052.525253" height="964.21875" rx="0" ry="0" transform="matrix(1 0 0 1-10.262626 1092.78125)" opacity="0.8" fill="url(#eHO72rCyITQ100-fill)" stroke-width="0"/><g id="eHO72rCyITQ101" transform="matrix(5.509821 0 0 5.509821 1105.592984 1671.3125)"><path id="eHO72rCyITQ102" d="M100.296,3.59097h1.86105v8.05706h-1.86105v-8.05706Zm.93793-1.32776c-.33752,0-.62035-.10561-.84864-.31684-.22829-.22129-.34251-.49288-.34251-.81477s.11422-.58843.34251-.79967c.22829-.22129.51112-.33193.84864-.33193s.62035.10562.84864.31685c.22829.20117.34251.45766.34251.76949c0,.33195-.11422.61358-.34251.84494-.21832.22129-.5013.33193-.84864.33193Zm17.50762,4.76743v4.61696h-1.86105v-4.37556c0-.70411-.16378-1.23218-.49133-1.58425-.32755-.3621-.7941-.54316-1.39949-.54316-.68501,0-1.2259.21123-1.62294.63369-.39705.41241-.59557,1.0109-.59557,1.7955v4.07379h-1.86105v-11.19538h1.86105v4.07379c.30776-.33195.68486-.58341,1.13162-.75441.45658-.18106.96271-.27159,1.51855-.27159c1.00259,0,1.80651.29673,2.41206.8902.60539.59346.90817,1.4736.90817,2.64042h-.00002ZM107.5923,11.7549c-.87342,0-1.54846-.23136-2.02483-.69407-.47652-.46269-.71478-1.13663-.71478-2.02181v-3.87763h-1.3102v-1.50882h1.3102v-1.84075h1.8612v1.84075h2.12908v1.50882h-2.12908v3.83237c0,.39231.09428.69407.28283.9053.18855.20117.46156.30176.81888.30176.41684,0,.76433-.11065,1.04218-.33195l.52109,1.34285c-.21832.18106-.48634.31685-.80392.40738-.30776.09053-.63531.13579-.98265.13579v.00001Zm-13.2957-.10591L92.24186,6.09656L90.1575,11.64899h-1.78672L85.45259,3.59193h1.75696l2.09931,5.94472l2.18861-5.94472h1.56327l2.14403,5.97489l2.15884-5.97489h1.65271l-2.93315,8.05706h-1.78657ZM80.71172,7.66404c0,.13076-.00982.31685-.02976.55826h-6.23841c.10923.59347.39221,1.06623.84879,1.41829.4664.34199,1.04218.51299,1.72704.51299.87342,0,1.59303-.2917,2.15884-.87511l.99761,1.16179c-.35731.43252-.80906.75943-1.35492.98072s-1.16138.33195-1.84625.33195c-.87342,0-1.64274-.17603-2.30766-.52808-.66507-.35206-1.18118-.83991-1.54846-1.46355-.35731-.63369-.53605-1.34787-.53605-2.14251c0-.78458.17375-1.48869.52109-2.11234.35731-.63371.84864-1.12657,1.47398-1.47863s1.33015-.52808,2.11427-.52808c.77415,0,1.464.17603,2.06955.52808.61537.34199,1.09189.82985,1.42926,1.46354.34749.62364.52109,1.34788.52109,2.1727l-.00001-.00002ZM76.69183,5.00853c-.59557,0-1.1017.18106-1.5187.54318-.40687.35206-.6551.82481-.74439,1.41829h4.51122c-.07932-.58341-.32256-1.05617-.72943-1.41829-.40702-.36212-.9133-.54318-1.5187-.54318ZM69.01645,11.6476v-1.04108c-.30776.38223-.68985.66889-1.14643.86002-.44676.19112-.94291.28668-1.48893.28668-.76433,0-1.45403-.17101-2.06955-.51301-.60539-.34199-1.08191-.82481-1.42925-1.44846-.34749-.63369-.52109-1.35793-.52109-2.17268s.17359-1.53397.52109-2.1576c.34734-.62364.82386-1.10646,1.42925-1.44846C64.92706,3.671,65.61676,3.5,66.38109,3.5c.52607,0,1.00743.09053,1.44421.27159s.8089.45265,1.11666.81477v-4.13414h1.86105v11.19538h-1.78656Zm-.35731-2.70078c.20834-.38223.31259-.82481.31259-1.32774s-.10425-.94553-.31259-1.32776c-.2085-.38223-.49133-.67394-.84864-.87511-.35746-.21125-.75935-.31685-1.2061-.31685-.4466,0-.84864.10561-1.20595.31685-.35731.20117-.64014.49288-.84864.87511s-.31259.82481-.31259,1.32776.1041.94551.31259,1.32774.49132.67897.84864.8902c.35731.20118.75935.30176,1.20595.30176.44676,0,.84864-.10058,1.2061-.30176.35731-.21123.64014-.50796.84864-.8902ZM56.93698,3.49973c1.1712,0,2.06456.28667,2.67993.86002.62534.56329.93793,1.41829.93793,2.56499v4.72257h-1.75681v-.98072c-.22829.35206-.55584.62363-.98265.81475-.41699.18106-.92312.27159-1.5187.27159s-1.11666-.10059-1.56327-.30176c-.44671-.21125-.79411-.49791-1.04225-.86003-.23823-.37217-.35733-.78961-.35733-1.25231c0-.72424.26304-1.30262.7891-1.73514.536-.44259,1.37467-.66388,2.51626-.66388h2.05459v-.1207c0-.56329-.16876-.99581-.50628-1.29757-.32755-.30178-.81888-.45265-1.47398-.45265-.4466,0-.88837.0704-1.32501.21123-.42681.14083-.78911.33696-1.08691.58844l-.72956-1.37302c.41689-.32189.91812-.56832,1.50373-.73932s1.20595-.2565,1.8612-.2565l.00001.00001Zm-.25322,6.88017c.46655,0,.8784-.10562,1.23587-.31685.36714-.22129.62519-.53312.77415-.93545v-.93547h-1.92073c-1.07194,0-1.60784.35709-1.60784,1.07126c0,.34199.13386.61357.40188.81475s.6403.30176,1.11666.30176h.00001Zm-10.69116.06065h-.86354l-3.42441-5.7033v6.91036h-1.8462v-10.56169h1.59309l4.13907,7.00089l4.06463-7.00089h1.59309l.01488,10.56169h-1.8313l-.0149-7.00089-3.42441,5.79383Zm63.34121,18.8993v15.15h-3.372v-1.962c-.57764.71189-1.32435,1.2678-2.172,1.617-.90563.36793-1.87555.55151-2.853.54-1.37977.02378-2.74245-.30785-3.957-.963-1.13745-.62625-2.07375-1.56255-2.7-2.7-1.30391-2.56373-1.30391-5.59627,0-8.16.6281-1.13606,1.56394-2.0719,2.7-2.7c1.21546-.65275,2.57751-.98423,3.957-.963.92501-.00857,1.84259.16578,2.7.513.8172.33509,1.54983.84741,2.145,1.5v-.762c0-.28643.11378-.56114.31633-.76367s.47724-.31633.76367-.31633l2.472-.03Zm-4.767,11.01c1.70241-1.9736,1.70241-4.8964,0-6.87-1.79985-1.74394-4.65915-1.74394-6.459,0-1.68467,1.98016-1.68467,4.88984,0,6.87.84101.87157,2.01145,1.34672,3.222,1.308c1.21374.03854,2.38799-.43377,3.237-1.302v-.006Zm17.94,3.324c-.4506.35546-.96927.61479-1.524.762-.61408.17233-1.2492.25816-1.887.255-1.41013.09088-2.79902-.37927-3.864-1.308-.9622-1.0234-1.45181-2.403-1.35-3.804v-13.59h2.469c.28643,0,.56114.11378.76367.31633s.31633.47724.31633.76367v2.379h4.047v2.853h-4.047v7.2c-.04376.61441.15433,1.2216.552,1.692.40613.41048.96838.62774,1.545.597.22613.00135.45196-.01672.675-.054.80958-.16952,1.6251.26156,1.941,1.026l.363.912Zm5.079.027c-1.20043-.63362-2.19844-1.59212-2.88-2.766-1.3796-2.49392-1.3796-5.52208,0-8.016.68541-1.16705,1.68279-2.11975,2.88-2.751c2.61457-1.32565,5.70443-1.32565,8.319,0c1.19702.63151,2.19433,1.58416,2.88,2.751c1.3796,2.49392,1.3796,5.52208,0,8.016-.68182,1.17368-1.67976,2.13211-2.88,2.766-2.61457,1.32565-5.70443,1.32565-8.319,0Zm7.392-3.369c1.70241-1.9736,1.70241-4.8964,0-6.87-1.79985-1.74394-4.65915-1.74394-6.459,0-1.68467,1.98016-1.68467,4.88984,0,6.87.84101.87157,2.01145,1.34672,3.222,1.308c1.21059.04404,2.38438-.42048,3.237-1.281v-.027Zm17.022-11.16v3.372c-.27077-.05406-.54592-.08318-.822-.087-1.19439-.06706-2.36247.36798-3.222,1.2-.83467.95959-1.25439,2.2112-1.167,3.48v7.353h-3.552v-15.15h2.298c.28643,0,.56113.11379.76367.31633s.31633.47724.31633.76367v1.134c1.014-1.588,2.809-2.382,5.385-2.382Zm-107.022,15.042c-.99952-.24447-1.95011-.65737-2.811-1.221l.621-1.233c.3744-.7399,1.2508-1.07278,2.022-.768.37389.15524.75654.28847,1.146.399.91807.26884,1.86939.4072,2.826.411c2.118,0,3.179-.557,3.183-1.671.01432-.51063-.31898-.96614-.81-1.107-.84397-.28199-1.7129-.4829-2.595-.6-1.03337-.14877-2.05419-.3744-3.054-.675-.77526-.24876-1.47221-.69547-2.022-1.296-.61143-.71083-.9214-1.63215-.864-2.568-.02956-1.38298.6493-2.68527,1.8-3.453c1.44674-.93234,3.1502-1.38576,4.869-1.296c1.05397.00022,2.10457.11896,3.132.354.90209.18897,1.76874.51902,2.568.978l-.675,1.296c-.363.73034-1.21602,1.07232-1.983.795-.9848-.3605-2.02631-.54137-3.075-.534-.81824-.04818-1.63519.11397-2.373.471-.48302.22293-.79719.70118-.81,1.233-.01041.54748.34149,1.03623.864,1.2.87464.31646,1.77934.54264,2.7.675c1.00825.15143,2.00395.37704,2.979.675.77042.2345,1.46702.66444,2.022,1.248.59601.69214.89656,1.59055.837,2.502.02092,1.37985-.67962,2.67062-1.848,3.405-1.50499.92728-3.25673,1.37412-5.022,1.281-1.22607-.00259-2.44614-.17112-3.627-.501Zm44.883-14.874v12.858c0,5.336-2.724,8.004-8.172,8.004-1.40084.00811-2.79608-.17765-4.146-.552-1.17835-.30549-2.28055-.85199-3.237-1.605l1.026-1.713c.30567-.49262.95204-.6455,1.446-.342.51805.29338,1.06493.53264,1.632.714.99571.32459,2.03673.48864,3.084.486c1.664,0,2.884-.378,3.66-1.134.84612-.94702,1.26781-2.19906,1.167-3.465v-.795c-.61114.66419-1.36796,1.17763-2.211,1.5-.91436.34924-1.88627.52327-2.865.513-1.35633.0185-2.69615-.29893-3.9-.924-1.14224-.59206-2.09694-1.49066-2.757-2.595-.68212-1.15978-1.02996-2.48573-1.005-3.831-.02691-1.34077.32116-2.66242,1.005-3.816.65985-1.09557,1.61266-1.98501,2.751-2.568c1.20751-.61258,2.54617-.9215,3.9-.9c1.02537-.01399,2.04386.16934,3,.54.88145.34534,1.65934.91145,2.259,1.644v-.936c0-.28643.11379-.56114.31633-.76367s.47724-.31633.76367-.31633l2.283-.003Zm-4.782,10.263c.86632-.80774,1.34014-1.95125,1.299-3.135.03647-1.17094-.43625-2.30022-1.296-3.096-1.9293-1.58787-4.7127-1.58787-6.642,0-.85642.7974-1.32577,1.92647-1.287,3.096-.04421,1.18189.4251,2.3251,1.287,3.135c1.92186,1.60535,4.71714,1.60535,6.639,0Zm-12.057-10.278l-5.892,13.743c-.36888.86087-1.21443,1.41985-2.151,1.422h-1.902l5.763-13.404.3-.675c.28294-.65223.92704-1.07338,1.638-1.071l2.244-.015Zm-10.785,13.263l-5.889-13.236h2.511c.71819-.00121,1.36666.42953,1.644,1.092l3.492,8.046-1.758,4.098Z" opacity="0.7" clip-rule="evenodd" fill="#fff" fill-rule="evenodd"/><g id="eHO72rCyITQ103" transform="matrix(.3 0 0 0.3-18.12243-25.905895)" opacity="0.7" mask="url(#eHO72rCyITQ105)"><path id="eHO72rCyITQ104" d="M129.5,243.58426c-8.76,2.18-20.08,1.79-37.33-19.63-2.35828-2.9281-4.38181-6.36293-5.93416-10.02849c3.00814.97918,6.21933,1.50849,9.55416,1.50849c17.03246,0,30.84-13.80754,30.84-30.84c0-5.42003-1.39819-10.5135-3.85355-14.93939c22.54068-3.14789,48.24701-1.18662,56.01355,6.19939c12.32,11.73-14.11,59.03-49.29,67.73Z" fill="#fff"/><mask id="eHO72rCyITQ105" mask-type="alpha" x="-150%" y="-150%" height="400%" width="400%"><path id="eHO72rCyITQ106" d="M78.37454,207.03926c0-31.45994,25.50332-56.96327,56.96327-56.96327s56.96327,25.50332,56.96327,56.96327-25.50332,56.96327-56.96327,56.96327-56.96327-25.50332-56.96327-56.96327Zm89.23546-4.715c-.16775-.93858-1.05962-1.56734-2-1.41h-.06c-4.15414.71597-8.30501-1.28258-10.33588-4.97651s-1.49439-8.26953,1.33588-11.39349c.33036-.3301.51598-.77798.51598-1.245s-.18561-.9149-.51598-1.245l-.11-.1c-2.70671-2.31865-5.78705-4.16144-9.11-5.45-.43613-.17299-.92328-.16468-1.35326.02308s-.76719.53944-.93674.97692v.06c-1.40364,3.98681-5.18789,6.63916-9.41438,6.59848s-7.95898-2.76539-9.28562-6.77848c-.13404-.44903-.44162-.82607-.85458-1.04757s-.8972-.26916-1.34542-.13243h-.11c-3.26392,1.21388-6.31249,2.94242-9.03,5.12-.37331.28196-.619.70095-.6828,1.16441s.05956.93325.3428,1.30559l.1.12c2.68294,3.2243,3.03751,7.79124.8844,11.39101s-6.34454,5.44763-10.4544,4.60899c-.45624-.10445-.9353-.02286-1.33126.22672s-.67619.6466-.77874,1.10328v.09c-.55386,3.43784-.55386,6.94217,0,10.38.06433.46505.31181.88512.68739,1.16681s.84815.40164,1.31261.33319h.11c4.15414-.71597,8.30501,1.28258,10.33588,4.97651s1.49439,8.26953-1.33588,11.39349c-.33036.3301-.51598.77798-.51598,1.245s.18561.9149.51598,1.245l.11.1c2.70914,2.30768,5.7893,4.14023,9.11,5.42.43613.17299.92328.16468,1.35326-.02308s.76719-.53944.93674-.97692v-.06c1.40815-3.97311,5.18194-6.61524,9.39704-6.57914s7.94308,2.7425,9.28296,6.73914c.13404.44903.44162.82607.85458,1.04757s.8972.26916,1.34542.13243h.11c3.30375-1.22537,6.38706-2.97809,9.13-5.19.37164-.28659.61343-.70974.67164-1.17542s-.07198-.93533-.36164-1.30458l-.1-.12c-2.83001-3.19588-3.28744-7.84789-1.13412-11.53378s6.43037-5.57199,10.60412-4.67622c.93041.23341,1.87421-.33019,2.11-1.26v-.09c.5347-3.37898.5347-6.82102,0-10.2Zm-41.67,4.69c0-5.197,4.213-9.41,9.41-9.41s9.41,4.213,9.41,9.41-4.213,9.41-9.41,9.41-9.41-4.213-9.41-9.41Z" fill="#d2dbed" stroke-width="0"/></mask></g><path id="eHO72rCyITQ107" d="M116.33,114.77l-3.64-2.18c-1.023263-.593162-1.652267-1.687247-1.65-2.87v-2c-.002267-1.182753.626737-2.276838,1.65-2.87l3.64-2.18c.762973-.435835,1.321342-1.157154,1.552062-2.005003s.114855-1.752643-.322062-2.514997v0l-1.74-3c-.935215-1.566004-2.961067-2.080293-4.53-1.15v0l-3.68,2.18c-1.024118.591275-2.285882.591275-3.31,0l-1.7-1c-1.023263-.593162-1.652267-1.687247-1.65-2.87v-4.38c0-.877867-.348731-1.719778-.969477-2.340523s-1.462656-.969477-2.340523-.969477h-3.47c-.877867,0-1.719778.348731-2.340523.969477s-.969477,1.462656-.969477,2.340523s0,.06,0,.09v4.35c.002267,1.182753-.626737,2.276838-1.65,2.87l-1.68,1c-1.024118.591275-2.285882.591275-3.31,0L80.56,94c-.767143-.448916-1.682599-.570435-2.540292-.337203s-1.585543.801616-2.019708,1.577203v0l-1.74,3c-.443418.7584-.567152,1.661967-.343945,2.511654s.775044,1.575787,1.533945,2.018346v0L79.1,105c1.023263.593162,1.652267,1.687247,1.65,2.87v2c.002267,1.182753-.626737,2.276838-1.65,2.87l-3.61,2.18c-1.578036.917936-2.114924,2.940216-1.2,4.52v0l1.74,3c.917936,1.578036,2.940216,2.114924,4.52,1.2v0l3.66-2.18c1.024118-.591275,2.285882-.591275,3.31,0l1.68,1c1.023263.593162,1.652267,1.687247,1.65,2.87v3.67c0,.877867.348731,1.719778.969477,2.340523s1.462656.969477,2.340523.969477h3.46c.877867,0,1.719778-.348731,2.340523-.969477s.969477-1.462656.969477-2.340523v0-3.77c-.002267-1.182753.626737-2.276838,1.65-2.87l1.7-1c1.024118-.591275,2.285882-.591275,3.31,0l3.66,2.18c1.5824.913239,3.605483.371662,4.52-1.21v0l1.74-3c.938839-1.568495.428452-3.601089-1.14-4.54Zm-20.49.91c-3.865993,0-7-3.134007-7-7s3.134007-7,7-7s7,3.134007,7,7v0c0,3.865993-3.134007,7-7,7v0Z" transform="matrix(.3 0 0 0.3-17.650844-2.6395)" opacity="0.7" fill="#fff"/></g>
<script><![CDATA[
!function(t,e){"object"==typeof exports&&"undefined"!=typeof module?module.exports=e():"function"==typeof __SVGATOR_DEFINE__&&__SVGATOR_DEFINE__.amd?__SVGATOR_DEFINE__(e):((t="undefined"!=typeof globalThis?globalThis:t||self).__SVGATOR_PLAYER__=t.__SVGATOR_PLAYER__||{},t.__SVGATOR_PLAYER__["5c7f360c"]=e())}(this,(function(){"use strict";class t{static _removeQuotes(t){return`${t}`.replace(/['"]/g,"")}static _convertHEXToRGB(t){const e=["^","\\s*","#","(?<red>[0-9A-Z]{1,2})","(?<green>[0-9A-Z]{1,2})","(?<blue>[0-9A-Z]{1,2})"].join(""),n=t.match(new RegExp(e,"i"));if(!n)return t;const r=t=>parseInt(t.length>1?t:`${t}${t}`,16);return`rgb(${r(n.groups.red)}, ${r(n.groups.green)}, ${r(n.groups.blue)})`}static _sanitizeNumber(t){return+t}static _suffixWithUnit(t,e="px"){return t.endsWith(e)?t:`${t}${e}`}static _roundToNDecimals(t,e=0){const n=Math.pow(10,e);return Math.round(t*n)/n}static getValuesFromMatrix(t){const e=["^","\\s*","(matrix\\()","(?<a>-?[0-9]*\\.?[0-9]+)","\\s*",",?","\\s*","(?<b>-?[0-9]*\\.?[0-9]+)","\\s*",",?","\\s*","(?<c>-?[0-9]*\\.?[0-9]+)","\\s*",",?","\\s*","(?<d>-?[0-9]*\\.?[0-9]+)","\\s*",",?","\\s*","(?<e>-?[0-9]*\\.?[0-9]+)","\\s*",",?","\\s*","(?<f>-?[0-9]*\\.?[0-9]+)","\\)"].join(""),n=t.match(new RegExp(e,"i"));if(n)return[this._sanitizeNumber(n.groups.a),this._sanitizeNumber(n.groups.b),this._sanitizeNumber(n.groups.c),this._sanitizeNumber(n.groups.d),this._sanitizeNumber(n.groups.e),this._sanitizeNumber(n.groups.f)]}static checkAgainstDefault(t,e="inline"){if(t!==e&&(t=this._removeQuotes(t))!==e)return t}static paint(t,e="rgb(0, 0, 0)"){if(t===e)return;if((t=this._removeQuotes(t))===e)return;if(t.startsWith("rgb"))return t;const n=this._convertHEXToRGB(t);return n===e?void 0:n}static opacity(t,e="1"){if(t!==e&&(t=`${this._roundToNDecimals(this._sanitizeNumber(t),3)}`)!==e)return t}static strokeWidth(t,e="1px"){if(t===e)return;if(t.endsWith("px"))return t;t=`${this._sanitizeNumber(t)}`;const n=this._suffixWithUnit(t);return n!==e?n:void 0}static transform(t,e="none"){if(t===e)return;const n=this.getValuesFromMatrix(t);return n?`matrix(${n.join(", ")})`:t}static transformOrigin(t,e="0px 0px"){if(t===e)return;const n=["^","\\s*","(?<x>[0-9]+)","(px)?","\\s*",",","\\s*","(?<y>[0-9]+)","(px)?"].join(""),r=t.match(new RegExp(n,"i"));if(!r)return t;let i=`${this._sanitizeNumber(r.groups.x)}`;i=this._suffixWithUnit(i);let s=`${this._sanitizeNumber(r.groups.y)}`;s=this._suffixWithUnit(s);const o=`${i} ${s}`;return o===e?void 0:o}}const e=r(Math.pow(10,-6)),n=r(Math.pow(10,-2));function r(t,e=6){return function(t,e,n){if(Number.isInteger(t))return t;const r=Math.pow(10,e);return Math[n]((+t+Number.EPSILON)*r)/r}(t,e,"round")}function i(t,n,r=e){return Math.abs(t-n)<r}r(Math.pow(10,-4));const s=Math.PI/180;function o(t){return t*s}function u(t){return t/s}class l{static _VISUAL_PROPERTIES=Object.freeze({display:e=>t.checkAgainstDefault(e),fill:e=>t.paint(e),"fill-opacity":e=>t.opacity(e),filter:e=>t.checkAgainstDefault(e,"none"),opacity:e=>t.opacity(e),stroke:e=>t.paint(e,"none"),"stroke-opacity":e=>t.opacity(e),"stroke-width":e=>t.strokeWidth(e),transform:e=>t.transform(e),"transform-origin":e=>t.transformOrigin(e),visibility:e=>t.checkAgainstDefault(e,"visible")});static _keys=Object.keys(this._VISUAL_PROPERTIES);static _MINIMUM_PRECISION_ERROR_PERCENTAGE=n;static get visualProperties(){return this._VISUAL_PROPERTIES}static _isWithinPrecisionErrorLimit(t,e){return i((e-t)/(e||1)*100,0,this._MINIMUM_PRECISION_ERROR_PERCENTAGE)}static _getTransformValue(e,n,r,i=window){var s,o;const u=e.getAttribute(n),l=i.safari&&!i.chrome&&"none"===(null===(s=r.getPropertyValue)||void 0===s?void 0:s.call(r,n))?u:null===(o=r.getPropertyValue)||void 0===o?void 0:o.call(r,n);if(!u||!l)return;if(u===l)return u;const a=t.getValuesFromMatrix(u),c=t.getValuesFromMatrix(l);if((null==a?void 0:a.length)===(null==c?void 0:c.length)){for(let t=0,e=a.length;t<e;t++)if(a[t]!==c[t]&&!this._isWithinPrecisionErrorLimit(c[t],a[t]))return;return u}}static _getValue(t,e,n){var r,i,s,o;return n&&"transform"===e?this._getTransformValue(t,e,n):(null===(r=n.getPropertyValue)||void 0===r?void 0:r.call(n,e))??(null===(i=t.attrs)||void 0===i||null===(s=i.style)||void 0===s?void 0:s[e])??(null===(o=t.attrs)||void 0===o?void 0:o[e])}static getProperties(t,e){const n="undefined"!=typeof window&&getComputedStyle(t),r={};for(let s=0,o=this._keys.length;s<o;s++){var i;const o=this._keys[s];if(null!=e&&null!==(i=e[t.id])&&void 0!==i&&i[o])continue;const u=this._getValue(t,o,n);if(null==u)continue;const l=this.visualProperties[o].call(this,u);l&&(r[o]=l)}return r}}class a{_hash;_baseId;_watermarkIds;constructor(t){var e,n;null!==(e=t.watermarkData)&&void 0!==e&&e.length&&(this._hash=t.watermarkData.shift(),this._baseId=null===(n=t.rootId)||void 0===n?void 0:n.slice(0,-1),this._watermarkIds=t.watermarkData.map((t=>this.constructor._buildId(this._baseId,t))))}get hash(){return this._hash}get watermarkIds(){return this._watermarkIds}static _buildId(t,e){return`${t}${e}`}static _buildIdSuffixes(t,e){const n=t.slice(0,-1),r=[];for(let t=0,s=e.length;t<s;t++){var i;r.push(null===(i=e[t])||void 0===i?void 0:i.replace(n,""))}return r}static generateIds(t,e,n){return[t,...this._buildIdSuffixes(e,n)]}}class c{constructor(t){this._player=t,this._watermarkDataLayer=new a(t)}get _svg(){return this._player.svg}get _watermarkIds(){return this._watermarkDataLayer.watermarkIds}get _animations(){return this._player.originalAnimations[0].elements}get _hash(){return this._watermarkDataLayer.hash}_processElement(t,e,n){var r;if(e[t])return;const i=this._svg.querySelector("#"+t),s=null==i||null===(r=i.parentElement)||void 0===r?void 0:r.id;if(i&&s){if(this._watermarkIds.includes(s))return e[s]||this._processElement(s,e,n),e[s].children??=[],e[t]=l.getProperties(i,this._animations),void e[s].children.push(e[t]);e[t]=l.getProperties(i,this._animations),n.push(e[t])}}_buildObfuscationJSON(){let t=[],e={};for(let n=0,r=this._watermarkIds.length;n<r;n++)this._processElement(this._watermarkIds[n],e,t);return t}async _generateHash(t){var e,n;const r=JSON.stringify(t),i=(new TextEncoder).encode(r),s=await(null===(e=window.crypto)||void 0===e||null===(n=e.subtle)||void 0===n?void 0:n.digest("SHA-256",i));return s&&Array.from(new Uint8Array(s)).map((t=>t.toString(16).padStart(2,"0"))).join("")||this._hash}async _calculateHash(){const t=this._buildObfuscationJSON();return await this._generateHash(t)}async validateHash(){await this._calculateHash()!==this._hash&&requestAnimationFrame((()=>this._player.stop()))}}class h{static _MIN_CHECK_TIME=300;static _MAX_CHECK_TIME=500;static _MIN_FRAMES=3;_frameCounter=0;_previousTimestamp=0;constructor(t){this._player=t,this._hashGenerator=new c(t)}_shouldBeChecked(t){return!(t-this._previousTimestamp<this.constructor._MIN_CHECK_TIME)&&(t-this._previousTimestamp>=this.constructor._MAX_CHECK_TIME||this._frameCounter>=this.constructor._MIN_FRAMES)}async checkFrame(t){this._player.watermarkData&&(this._frameCounter++,this._shouldBeChecked(t)&&(this._frameCounter=0,this._previousTimestamp=t,window.requestAnimationFrame((()=>this._hashGenerator.validateHash()))))}}function f(t){return t}function d(t,e,n){const r=1-n;return 3*n*r*(t*r+e*n)+n*n*n}function g(t=0,e=0,n=1,r=1){return t<0||t>1||n<0||n>1?null:i(t,e)&&i(n,r)?f:s=>{if(s<=0)return t>0?s*e/t:0===e&&n>0?s*r/n:0;if(s>=1)return n<1?1+(s-1)*(r-1)/(n-1):1===n&&t<1?1+(s-1)*(e-1)/(t-1):1;let o,u=0,l=1;for(;u<l;){o=(u+l)/2;const e=d(t,n,o);if(i(s,e))break;e<s?u=o:l=o}return d(e,r,o)}}function m(){return 1}function p(t){return 1===t?1:0}function y(t=1,e=0){if(1===t){if(0===e)return p;if(1===e)return m}const n=1/t;return t=>t>=1?1:(t+=e*n)-t%n}Number.isInteger||(Number.isInteger=function(t){return"number"==typeof t&&isFinite(t)&&Math.floor(t)===t}),Number.EPSILON||(Number.EPSILON=2220446049250313e-31);const _=Math.sin,b=Math.cos,v=Math.acos,w=Math.asin,A=Math.tan,x=Math.atan2,k=Math.sqrt;function S(t,e){return{a:t[0]*e[0]+t[2]*e[1],b:t[1]*e[0]+t[3]*e[1],c:t[0]*e[2]+t[2]*e[3],d:t[1]*e[2]+t[3]*e[3],tx:t[0]*e[4]+t[2]*e[5]+t[4],ty:t[1]*e[4]+t[3]*e[5]+t[5]}}function E(t,e,n){return t>=.5?n:e}function I(t,e,n){return 0===t||e===n?e:t*(n-e)+e}function M(t,e,n){const r=I(t,e,n);return r<=0?0:r}function N(t,e,n){const r=I(t,e,n);return r<=0?0:r>=1?1:r}function T(t,e,n){return 0===t?e:1===t?n:{x:I(t,e.x,n.x),y:I(t,e.y,n.y)}}function O(t,e,n){return 0===t?e:1===t?n:{x:M(t,e.x,n.x),y:M(t,e.y,n.y)}}function R(t,e,n){const r=function(t,e,n){return Math.round(I(t,e,n))}(t,e,n);return r<=0?0:r>=255?255:r}function C(t,e,n){return 0===t?e:1===t?n:{r:R(t,e.r,n.r),g:R(t,e.g,n.g),b:R(t,e.b,n.b),a:I(t,null==e.a?1:e.a,null==n.a?1:n.a)}}function P(t,e,n){let r=e.length;if(r!==n.length)return E(t,e,n);let i=new Array(r);for(let s=0;s<r;s++)i[s]=I(t,e[s],n[s]);return i}function B(t,e){const n=[];for(let r=0;r<t;r++)n.push(e);return n}function j(t,e){if(--e<=0)return t;const n=(t=Object.assign([],t)).length;do{for(let e=0;e<n;e++)t.push(t[e])}while(--e>0);return t}class F{constructor(t){this.list=t,this.length=t.length}setAttribute(t,e){const n=this.list;for(let r=0;r<this.length;r++)n[r].setAttribute(t,e)}removeAttribute(t){const e=this.list;for(let n=0;n<this.length;n++)e[n].removeAttribute(t)}style(t,e){const n=this.list;for(let r=0;r<this.length;r++)n[r].style[t]=e}}const V=/-./g,D=(t,e)=>e.toUpperCase();let L;function q(t){return"function"==typeof t?t:E}function z(t){return t?"function"==typeof t?t:Array.isArray(t)?function(t,e=f){if(!Array.isArray(t))return e;switch(t.length){case 1:return y(t[0])||e;case 2:return y(t[0],t[1])||e;case 4:return g(t[0],t[1],t[2],t[3])||e}return e}(t,null):function(t,e,n=f){switch(t){case"linear":return f;case"steps":return y(e.steps||1,e.jump||0)||n;case"bezier":case"cubic-bezier":return g(e.x1||0,e.y1||0,e.x2||0,e.y2||0)||n}return n}(t.type,t.value,null):null}function $(t,e,n,r=!1){const i=e.length-1;if(t<=e[0].t)return r?[0,0,e[0].v]:e[0].v;if(t>=e[i].t)return r?[i,1,e[i].v]:e[i].v;let s,o=e[0],u=null;for(s=1;s<=i;s++){if(!(t>e[s].t)){u=e[s];break}o=e[s]}return null==u?r?[i,1,e[i].v]:e[i].v:o.t===u.t?r?[s,1,u.v]:u.v:(t=(t-o.t)/(u.t-o.t),o.e&&(t=o.e(t)),r?[s,t,n(t,o.v,u.v)]:n(t,o.v,u.v))}function G(t,e,n=null){return t&&t.length?"function"!=typeof e?null:("function"!=typeof n&&(n=null),r=>{let i=$(r,t,e);return null!=i&&n&&(i=n(i)),i}):null}function H(t,e){return t.t-e.t}function W(t,e,n,r,i){const s="@"===n[0],o="#"===n[0];let u=L[n],l=E;var a;switch(s?(a=n.substr(1),n=a.replace(V,D)):o&&(n=n.substr(1)),typeof u){case"function":if(l=u(r,i,$,z,n,s,e,t),o)return l;break;case"string":l=G(r,q(u));break;case"object":if(l=G(r,q(u.i),u.f),l&&"function"==typeof u.u)return u.u(e,l,n,s,t)}return l?function(t,e,n,r=!1){if(r)return t instanceof F?r=>t.style(e,n(r)):r=>t.style[e]=n(r);if(Array.isArray(e)){const r=e.length;return i=>{const s=n(i);if(null==s)for(let n=0;n<r;n++)t[n].removeAttribute(e);else for(let n=0;n<r;n++)t[n].setAttribute(e,s)}}return r=>{const i=n(r);null==i?t.removeAttribute(e):t.setAttribute(e,i)}}(e,n,l,s):null}function U(t,e,n,r){if(!r||"object"!=typeof r)return null;let i=null,s=null;return Array.isArray(r)?s=function(t){if(!t||!t.length)return null;for(let e=0;e<t.length;e++)t[e].e&&(t[e].e=z(t[e].e));return t.sort(H)}(r):(s=r.keys,i=r.data||null),s?W(t,e,n,s,i):null}function Y(t,e,n){if(!n)return null;const r=[];for(const i in n)if(n.hasOwnProperty(i)){const s=U(t,e,i,n[i]);s&&r.push(s)}return r.length?r:null}function X(t,e){if(!e.settings.duration||e.settings.duration<0)return null;const n=function(t,e){if(!e)return null;let n=[];if(Array.isArray(e)){const r=e.length;for(let i=0;i<r;i++){const r=e[i];if(2!==r.length)continue;let s=null;if("string"==typeof r[0])s=t.getElementById(r[0]);else if(Array.isArray(r[0])){s=[];for(let e=0;e<r[0].length;e++)if("string"==typeof r[0][e]){const n=t.getElementById(r[0][e]);n&&s.push(n)}s=s.length?1===s.length?s[0]:new F(s):null}if(!s)continue;const o=Y(t,s,r[1]);o&&(n=n.concat(o))}}else for(const r in e){if(!e.hasOwnProperty(r))continue;const i=t.getElementById(r);if(!i)continue;const s=Y(t,i,e[r]);s&&(n=n.concat(s))}return n.length?n:null}(t,e.elements);return n?function(t,e){const n=e.duration,r=t.length;let i=null;return(s,o)=>{const u=e.iterations||1/0,l=(e.alternate&&u%2==0)^e.direction>0?n:0;let a=s%n,c=1+(s-a)/n;o*=e.direction,e.alternate&&c%2==0&&(o=-o);let h=!1;if(c>u)a=l,h=!0,-1===e.fill&&(a=e.direction>0?0:n);else if(o<0&&(a=n-a),a===i)return!1;i=a;for(let e=0;e<r;e++)t[e](a);return h}}(n,e.settings):null}function Q(t,e=document,n=0){const r=function(t,e){const n=e.querySelectorAll("svg");for(let e=0;e<n.length;e++)if(n[e].id===t.root&&!n[e].svgatorAnimation)return n[e].svgatorAnimation=!0,n[e];return null}(t,e);if(r)return r;if(n>=20)return null;const i=function(t){const e=t=>t.shadowRoot;return document?Array.from(t.querySelectorAll(":not("+["a","area","audio","br","canvas","circle","datalist","embed","g","head","hr","iframe","img","input","link","object","path","polygon","rect","script","source","style","svg","title","track","video"].join()+")")).filter(e).map(e):[]}(e);for(let e=0;e<i.length;e++){const r=Q(t,i[e],n+1);if(r)return r}return null}function J(t,e=null,n=Number,r="undefined"!=typeof BigInt&&BigInt){const i="0x"+(t.replace(/[^0-9a-fA-F]+/g,"")||27);return e&&r&&n.isSafeInteger&&!n.isSafeInteger(+i)?n(r(i))%e+e:+i}function K(t,e,n){return!t||!n||e>t.length?t:t.substring(0,e)+K(t.substring(e+1),n,n)}function Z(t,e=27){return!t||t%e?t%e:[0,1].includes(e)?e:Z(t/e,e)}function tt(t,e,n){if(!t||!t.length)return;const r=J(n),i=Z(r)+5;let s=K(t,Z(r,5),i);return s=s.replace(/\x7c$/g,"==").replace(/\x2f$/g,"="),s=atob(s),s=s.replace(/[\x41-\x5A]/g,""),s=function(t,e,n){const r=+("0x"+t.substring(0,4));t=t.substring(4);const i=J(e,r)%r+n%27,s=[];for(let e=0;e<t.length;e+=2){if("|"===t[e]){const n=+("0x"+t.substring(e+1,e+1+4))-i;e+=3,s.push(n);continue}const n=+("0x"+t[e]+t[e+1])-i;s.push(n)}return String.fromCharCode(...s)}(s,e,r),s=JSON.parse(s),s}const et=[{key:"alternate",def:!1},{key:"fill",def:1},{key:"iterations",def:0},{key:"direction",def:1},{key:"speed",def:1},{key:"fps",def:100}];function nt(t){return r(t)+""}function rt(t,e=" "){return t&&t.length?t.map(nt).join(e):""}function it(t){return nt(t.x)+","+nt(t.y)}function st(t){return t?null==t.a||t.a>=1?function(t){if(!t)return"transparent";const e=t=>parseInt(t).toString(16).padStart(2,"0");return function(t){const e=[];let n="#"===t[0]?e.push("#"):0;for(;n<t.length;n+=2){if(t[n]!==t[n+1])return t;e.push(t[n])}return e.join("")}("#"+e(t.r)+e(t.g)+e(t.b)+(null==t.a||t.a>=1?"":e(255*t.a)))}(t):"rgba("+t.r+","+t.g+","+t.b+","+t.a+")":"transparent"}function ot(t){return t?"url(#"+t+")":"none"}!function(){for(var t=0,e=["ms","moz","webkit","o"],n=0;n<e.length&&!window.requestAnimationFrame;++n)window.requestAnimationFrame=window[e[n]+"RequestAnimationFrame"],window.cancelAnimationFrame=window[e[n]+"CancelAnimationFrame"]||window[e[n]+"CancelRequestAnimationFrame"];window.requestAnimationFrame||(window.requestAnimationFrame=function(e){var n=Date.now(),r=Math.max(0,16-(n-t)),i=window.setTimeout((function(){e(n+r)}),r);return t=n+r,i},window.cancelAnimationFrame=window.clearTimeout)}();var ut={f:null,i:O,u:(t,e)=>n=>{const r=e(n);t.setAttribute("rx",nt(r.x)),t.setAttribute("ry",nt(r.y))}},lt={f:null,i:function(t,e,n){return 0===t?e:1===t?n:{width:M(t,e.width,n.width),height:M(t,e.height,n.height)}},u:(t,e)=>n=>{const r=e(n);t.setAttribute("width",nt(r.width)),t.setAttribute("height",nt(r.height))}};Object.freeze({M:2,L:2,Z:0,H:1,V:1,C:6,Q:4,T:2,S:4,A:7});let at={},ct=null;function ht(t){let e=function(){if(ct)return ct;if("object"!=typeof document||!document.createElementNS)return{};let t=document.createElementNS("http://www.w3.org/2000/svg","svg");return t&&t.style?(t.style.position="absolute",t.style.opacity="0.01",t.style.zIndex="-9999",t.style.left="-9999px",t.style.width="1px",t.style.height="1px",ct={svg:t},ct):{}}().svg;if(!e)return function(t){return null};let n=document.createElementNS(e.namespaceURI,"path");n.setAttributeNS(null,"d",t),n.setAttributeNS(null,"fill","none"),n.setAttributeNS(null,"stroke","none"),e.appendChild(n);let r=n.getTotalLength();return function(t){let e=n.getPointAtLength(r*t);return{x:e.x,y:e.y}}}function ft(t,e,n,r,i=1){let s=function(t){return at[t]?at[t]:at[t]=ht(t)}(function(t,e,n,r){if(!t||!r)return!1;let i=["M",t.x,t.y];if(e&&n&&(i.push("C"),i.push(e.x),i.push(e.y),i.push(n.x),i.push(n.y)),e?!n:n){let t=e||n;i.push("Q"),i.push(t.x),i.push(t.y)}return e||n||i.push("L"),i.push(r.x),i.push(r.y),i.join(" ")}(t,e,n,r));try{return s(i)}catch(t){return null}}function dt(t,e,n){return t+(e-t)*n}function gt(t,e,n,r=!1){const i={x:dt(t.x,e.x,n),y:dt(t.y,e.y,n)};return r&&(i.a=function(t,e){return Math.atan2(e.y-t.y,e.x-t.x)}(t,e)),i}function mt(t,e,n,r){const i=1-r;return i*i*t+2*i*r*e+r*r*n}function pt(t,e,n,r){return 2*(1-r)*(e-t)+2*r*(n-e)}function yt(t,e,n,r,i=!1){let s=ft(t,e,null,n,r);return s||(s={x:mt(t.x,e.x,n.x,r),y:mt(t.y,e.y,n.y,r)}),i&&(s.a=function(t,e,n,r){return Math.atan2(pt(t.y,e.y,n.y,r),pt(t.x,e.x,n.x,r))}(t,e,n,r)),s}function _t(t,e,n,r,i){const s=i*i;return i*s*(r-t+3*(e-n))+3*s*(t+n-2*e)+3*i*(e-t)+t}function bt(t,e,n,r,i){const s=1-i;return 3*(s*s*(e-t)+2*s*i*(n-e)+i*i*(r-n))}function vt(t,e,n,r,i,s=!1){let o=ft(t,e,n,r,i);return o||(o={x:_t(t.x,e.x,n.x,r.x,i),y:_t(t.y,e.y,n.y,r.y,i)}),s&&(o.a=function(t,e,n,r,i){return Math.atan2(bt(t.y,e.y,n.y,r.y,i),bt(t.x,e.x,n.x,r.x,i))}(t,e,n,r,i)),o}function wt(t,e,n,r=!1){if(xt(e)){if(kt(n))return yt(e,n.start,n,t,r)}else if(xt(n)){if(St(e))return yt(e,e.end,n,t,r)}else{if(St(e))return kt(n)?vt(e,e.end,n.start,n,t,r):yt(e,e.end,n,t,r);if(kt(n))return yt(e,n.start,n,t,r)}return gt(e,n,t,r)}function At(t,e,n){const r=wt(t,e,n,!0);return r.a=u(function(t,e=!1){return e?t+Math.PI:t}(r.a)),r}function xt(t){return!t.type||"corner"===t.type}function kt(t){return null!=t.start&&!xt(t)}function St(t){return null!=t.end&&!xt(t)}const Et=new class{constructor(t=1,e=0,n=0,r=1,i=0,s=0){this.m=[t,e,n,r,i,s],this.i=null,this.w=null,this.s=null}get determinant(){const t=this.m;return t[0]*t[3]-t[1]*t[2]}get isIdentity(){if(null===this.i){const t=this.m;this.i=1===t[0]&&0===t[1]&&0===t[2]&&1===t[3]&&0===t[4]&&0===t[5]}return this.i}point(t,e){const n=this.m;return{x:n[0]*t+n[2]*e+n[4],y:n[1]*t+n[3]*e+n[5]}}translateSelf(t=0,e=0){if(!t&&!e)return this;const n=this.m;return n[4]+=n[0]*t+n[2]*e,n[5]+=n[1]*t+n[3]*e,this.w=this.s=this.i=null,this}rotateSelf(t=0){if(t%=360){t=o(t);const e=_(t),n=b(t),r=this.m,i=r[0],s=r[1];r[0]=i*n+r[2]*e,r[1]=s*n+r[3]*e,r[2]=r[2]*n-i*e,r[3]=r[3]*n-s*e,this.w=this.s=this.i=null}return this}scaleSelf(t=1,e=1){if(1!==t||1!==e){const n=this.m;n[0]*=t,n[1]*=t,n[2]*=e,n[3]*=e,this.w=this.s=this.i=null}return this}skewSelf(t,e){if(e%=360,(t%=360)||e){const n=this.m,r=n[0],i=n[1],s=n[2],u=n[3];t&&(t=A(o(t)),n[2]+=r*t,n[3]+=i*t),e&&(e=A(o(e)),n[0]+=s*e,n[1]+=u*e),this.w=this.s=this.i=null}return this}resetSelf(t=1,e=0,n=0,r=1,i=0,s=0){const o=this.m;return o[0]=t,o[1]=e,o[2]=n,o[3]=r,o[4]=i,o[5]=s,this.w=this.s=this.i=null,this}recomposeSelf(t=null,e=null,n=null,r=null,i=null){return this.isIdentity||this.resetSelf(),t&&(t.x||t.y)&&this.translateSelf(t.x,t.y),e&&this.rotateSelf(e),n&&(n.x&&this.skewSelf(n.x,0),n.y&&this.skewSelf(0,n.y)),!r||1===r.x&&1===r.y||this.scaleSelf(r.x,r.y),i&&(i.x||i.y)&&this.translateSelf(i.x,i.y),this}decompose(t=0,e=0){const n=this.m,i=n[0]*n[0]+n[1]*n[1],s=[[n[0],n[1]],[n[2],n[3]]];let o=k(i);if(0===o)return{origin:{x:r(n[4]),y:r(n[5])},translate:{x:r(t),y:r(e)},scale:{x:0,y:0},skew:{x:0,y:0},rotate:0};s[0][0]/=o,s[0][1]/=o;const l=n[0]*n[3]-n[1]*n[2]<0;l&&(o=-o);let a=s[0][0]*s[1][0]+s[0][1]*s[1][1];s[1][0]-=s[0][0]*a,s[1][1]-=s[0][1]*a;let c,h=k(s[1][0]*s[1][0]+s[1][1]*s[1][1]);return 0===h?{origin:{x:r(n[4]),y:r(n[5])},translate:{x:r(t),y:r(e)},scale:{x:r(o),y:0},skew:{x:0,y:0},rotate:0}:(s[1][0]/=h,s[1][1]/=h,a/=h,s[1][1]<0?(c=u(v(s[1][1])),s[0][1]<0&&(c=360-c)):c=u(w(s[0][1])),l&&(c=-c),a=u(x(a,k(s[0][0]*s[0][0]+s[0][1]*s[0][1]))),l&&(a=-a),{origin:{x:r(n[4]),y:r(n[5])},translate:{x:r(t),y:r(e)},scale:{x:r(o),y:r(h)},skew:{x:r(a),y:0},rotate:r(c)})}multiply(t){return this.clone().multiplySelf(t)}preMultiply(t){return t.multiply(this)}multiplySelf(t){const{a:e,b:n,c:r,d:i,tx:s,ty:o}=S(this.m,t.m);return this.resetSelf(e,n,r,i,s,o),this}preMultiplySelf(t){const{a:e,b:n,c:r,d:i,tx:s,ty:o}=S(t.m,this.m);return this.resetSelf(e,n,r,i,s,o),this}clone(){const t=this.m;return new this.constructor(t[0],t[1],t[2],t[3],t[4],t[5])}static create(t){return t?Array.isArray(t)?new this(...t):t instanceof this?t.clone():(new this).recomposeSelf(t.origin,t.rotate,t.skew,t.scale,t.translate):new this}toString(t=" ",e=!1){if(null===this.s){let n=this.m.map((t=>r(t)));e||1!==n[0]||0!==n[1]||0!==n[2]||1!==n[3]?this.s="matrix("+n.join(t)+")":this.s="translate("+n[4]+t+n[5]+")"}return this.s}};var It={f:function(t){return t?t.join(" "):""},i:function(t,e,n){if(0===t)return e;if(1===t)return n;let r=e.length;if(r!==n.length)return E(t,e,n);let i,s=new Array(r);for(let o=0;o<r;o++){if(i=typeof e[o],i!==typeof n[o])return E(t,e,n);if("number"===i)s[o]=I(t,e[o],n[o]);else{if(e[o]!==n[o])return E(t,e,n);s[o]=e[o]}}return s}},Mt={f:null,i:P,u:(t,e)=>n=>{const r=e(n);t.setAttribute("x1",nt(r[0])),t.setAttribute("y1",nt(r[1])),t.setAttribute("x2",nt(r[2])),t.setAttribute("y2",nt(r[3]))}},Nt={f:nt,i:I},Tt={f:nt,i:N},Ot={f:function(t,e=" "){return t&&t.length>0&&(t=t.map((t=>r(t,4)))),rt(t,e)},i:function(t,e,n){let i=e.length,s=n.length;if(i!==s)if(0===i)i=s,e=B(i,0);else if(0===s)s=i,n=B(i,0);else{const t=function(t,e){const n=t*e/function(t,e){let n;for(;e;)n=e,e=t%e,t=n;return t||1}(t,e);return n<0?-n:n}(i,s);e=j(e,Math.floor(t/i)),n=j(n,Math.floor(t/s)),i=s=t}let o=[];for(let s=0;s<i;s++)o.push(r(M(t,e[s],n[s])));return o}};function Rt(t,e,n){return t.map((t=>function(t,e,n){let i=t.v;if(!i||"g"!==i.t||i.s||!i.v||!i.r)return t;const s=n.getElementById(i.r),o=s&&s.querySelectorAll("stop")||[];return i.s=i.v.map(((t,e)=>{let n=o[e]&&o[e].getAttribute("offset");return n=r(parseInt(n)/100),{c:t,o:n}})),delete i.v,t}(t,0,n)))}const Ct={gt:"gradientTransform",c:{x:"cx",y:"cy"},rd:"r",f:{x:"x1",y:"y1"},to:{x:"x2",y:"y2"}};function Pt(t,e,n,r,i,s,o,u){return Rt(t,0,u),e=function(t,e,n){let r,i,s;const o=t.length-1,u={};for(let l=0;l<=o;l++)r=t[l],r.e&&(r.e=e(r.e)),r.v&&(i=r.v,"g"===i.t&&i.r&&(s=n.getElementById(i.r),s&&(u[i.r]={e:s,s:s.querySelectorAll("stop")})));return u}(t,r,u),r=>{const i=n(r,t,Bt);if(!i)return"none";if("c"===i.t)return st(i.v);if("g"===i.t){if(!e[i.r])return ot(i.r);const t=e[i.r];return function(t,e){let n=t.s;for(let r=n.length;r<e.length;r++){const e=n[n.length-1].cloneNode();e.id=Vt(e.id),t.e.appendChild(e),n=t.s=t.e.querySelectorAll("stop")}for(let t=0,r=n.length,i=e.length-1;t<r;t++)n[t].setAttribute("stop-color",st(e[Math.min(t,i)].c)),n[t].setAttribute("offset",e[Math.min(t,i)].o)}(t,i.s),Object.keys(Ct).forEach((e=>{if(void 0===i[e])return;if("object"==typeof Ct[e])return void Object.keys(Ct[e]).forEach((n=>{if(void 0===i[e][n])return;const r=i[e][n],s=Ct[e][n];t.e.setAttribute(s,r)}));const n="gt"===e?(r=i[e],Array.isArray(r)?"matrix("+r.join(" ")+")":""):i[e];var r;const s=Ct[e];t.e.setAttribute(s,n)})),ot(i.r)}return"none"}}function Bt(t,e,n){if(0===t)return e;if(1===t)return n;if(e&&n){const r=e.t;if(r===n.t)switch(e.t){case"c":return{t:r,v:C(t,e.v,n.v)};case"g":if(e.r===n.r){const i={t:r,s:jt(t,e.s,n.s),r:e.r};return e.gt&&n.gt&&(i.gt=P(t,e.gt,n.gt)),e.c?(i.c=T(t,e.c,n.c),i.rd=M(t,e.rd,n.rd)):e.f&&(i.f=T(t,e.f,n.f),i.to=T(t,e.to,n.to)),i}}if("c"===e.t&&"g"===n.t||"c"===n.t&&"g"===e.t){const r="c"===e.t?e:n,i="g"===e.t?{...e}:{...n},s=i.s.map((t=>({c:r.v,o:t.o})));return i.s="c"===e.t?jt(t,s,i.s):jt(t,i.s,s),i}}return E(t,e,n)}function jt(t,e,n){if(e.length===n.length)return e.map(((e,r)=>Ft(t,e,n[r])));const r=Math.max(e.length,n.length),i=[];for(let s=0;s<r;s++){const r=Ft(t,e[Math.min(s,e.length-1)],n[Math.min(s,n.length-1)]);i.push(r)}return i}function Ft(t,e,n){return{o:N(t,e.o,n.o||0),c:C(t,e.c,n.c||{})}}function Vt(t){return t.replace(/-fill-([0-9]+)$/,((t,e)=>"-fill-"+(+e+1)))}function Dt(t,e,n){return 0===t?e:1===t?n:{blur:O(t,e.blur,n.blur),offset:T(t,e.offset,n.offset),color:C(t,e.color,n.color)}}const Lt={blur:O,brightness:M,contrast:M,"drop-shadow":Dt,"inner-shadow":Dt,grayscale:M,"hue-rotate":I,invert:M,opacity:M,saturate:M,sepia:M};function qt(t,e,n){if(0===t)return e;if(1===t)return n;const r=e.length;if(r!==n.length)return E(t,e,n);const i=[];let s;for(let o=0;o<r;o++){if(e[o].type!==n[o].type)return e;if(s=Lt[e[o].type],!s)return E(t,e,n);i.push({type:e.type,value:s(t,e[o].value,n[o].value)})}return i}const zt={blur:t=>t?e=>{t.setAttribute("stdDeviation",it(e))}:null,brightness:(t,e,n)=>(t=Gt(n,e))?e=>{e=nt(e),t.map((t=>t.setAttribute("slope",e)))}:null,contrast:(t,e,n)=>(t=Gt(n,e))?e=>{const n=nt((1-e)/2);e=nt(e),t.map((t=>{t.setAttribute("slope",e),t.setAttribute("intercept",n)}))}:null,"drop-shadow"(t,e,n){const r=n.getElementById(e+"-blur");if(!r)return null;const i=n.getElementById(e+"-offset");if(!i)return null;const s=n.getElementById(e+"-flood");return s?t=>{r.setAttribute("stdDeviation",it(t.blur)),i.setAttribute("dx",nt(t.offset.x)),i.setAttribute("dy",nt(t.offset.y)),s.setAttribute("flood-color",st(t.color))}:null},"inner-shadow"(t,e,n){const r=n.getElementById(e+"-blur");if(!r)return null;const i=n.getElementById(e+"-offset");if(!i)return null;const s=n.getElementById(e+"-color-matrix");return s?t=>{r.setAttribute("stdDeviation",it(t.blur)),i.setAttribute("dx",nt(t.offset.x)),i.setAttribute("dy",nt(t.offset.y));const e=[0,0,0,0,t.color.r/255,0,0,0,0,t.color.g/255,0,0,0,0,t.color.b/255,0,0,0,t.color.a,0];s.setAttribute("values",rt(e))}:null},grayscale:t=>t?e=>{t.setAttribute("values",rt(function(t){return[.2126+.7874*(t=1-t),.7152-.7152*t,.0722-.0722*t,0,0,.2126-.2126*t,.7152+.2848*t,.0722-.0722*t,0,0,.2126-.2126*t,.7152-.7152*t,.0722+.9278*t,0,0,0,0,0,1,0]}(e)))}:null,"hue-rotate":t=>t?e=>t.setAttribute("values",nt(e)):null,invert:(t,e,n)=>(t=Gt(n,e))?e=>{e=nt(e)+" "+nt(1-e),t.map((t=>t.setAttribute("tableValues",e)))}:null,opacity:(t,e,n)=>(t=n.getElementById(e+"-A"))?e=>t.setAttribute("tableValues","0 "+nt(e)):null,saturate:t=>t?e=>t.setAttribute("values",nt(e)):null,sepia:t=>t?e=>t.setAttribute("values",rt(function(t){return[.393+.607*(t=1-t),.769-.769*t,.189-.189*t,0,0,.349-.349*t,.686+.314*t,.168-.168*t,0,0,.272-.272*t,.534-.534*t,.131+.869*t,0,0,0,0,0,1,0]}(e))):null};const $t=["R","G","B"];function Gt(t,e){const n=$t.map((n=>t.getElementById(e+"-"+n)||null));return-1!==n.indexOf(null)?null:n}var Ht={fill:Pt,"fill-opacity":Tt,stroke:Pt,"stroke-opacity":Tt,"stroke-width":Nt,"stroke-dashoffset":{f:nt,i:I},"stroke-dasharray":Ot,opacity:Tt,transform:function(t,e,n,r){if(!(t=function(t,e){if(!t||"object"!=typeof t)return null;let n=!1;for(const r in t)t.hasOwnProperty(r)&&(t[r]&&t[r].length?(t[r].forEach((t=>{t.e&&(t.e=e(t.e))})),n=!0):delete t[r]);return n?t:null}(t,r)))return null;const i=(r,i,s,o=null)=>t[r]?n(i,t[r],s):e&&e[r]?e[r]:o;return e&&e.a&&t.o?e=>{const r=n(e,t.o,At);return Et.recomposeSelf(r,i("r",e,I,0)+r.a,i("k",e,T),i("s",e,T),i("t",e,T)).toString()}:t=>Et.recomposeSelf(i("o",t,wt,null),i("r",t,I,0),i("k",t,T),i("s",t,T),i("t",t,T)).toString()},"#filter":function(t,e,n,r,i,s,o,u){if(!e.items||!t||!t.length)return null;const l=function(t,e){const n=(t=t.map((t=>t&&zt[t[0]]?(e.getElementById(t[1]),zt[t[0]](e.getElementById(t[1]),t[1],e)):null))).length;return e=>{for(let r=0;r<n;r++)t[r]&&t[r](e[r].value)}}(e.items,u);return l?(t=function(t,e){return t.map((t=>(t.e=e(t.e),t)))}(t,r),e=>{l(n(e,t,qt))}):null},"#line":Mt,points:{f:rt,i:P},d:It,r:Nt,"#size":lt,"#radius":ut,_(t,e){if(Array.isArray(t))for(let n=0;n<t.length;n++)this[t[n]]=e;else this[t]=e}};let Wt=function(t,e,n=n){let r=!1,i=null;return function(s){r&&clearTimeout(r),r=setTimeout((()=>function(){let s=0,o=n.innerHeight,u=0,l=n.innerWidth,a=t.parentNode;for(;a instanceof Element;){let t=n.getComputedStyle(a);if("visible"!==t.overflowY||"visible"!==t.overflowX){let e=a.getBoundingClientRect();"visible"!==t.overflowY&&(s=Math.max(s,e.top),o=Math.min(o,e.bottom)),"visible"!==t.overflowX&&(u=Math.max(u,e.left),l=Math.min(l,e.right))}if(a===a.parentNode)break;a=a.parentNode}r=!1;let c=t.getBoundingClientRect(),h=Math.min(c.height,Math.max(0,s-c.top)),f=Math.min(c.height,Math.max(0,c.bottom-o)),d=Math.min(c.width,Math.max(0,u-c.left)),g=Math.min(c.width,Math.max(0,c.right-l)),m=(c.height-h-f)/c.height,p=(c.width-d-g)/c.width,y=Math.round(m*p*100);null!==i&&i===y||(i=y,e(y))}()),100)}};class Ut{constructor(t,e,n){const r=function(t){var e,n;const r=t&&1===(null===(e=t.ownerDocument)||void 0===e||null===(n=e.childNodes)||void 0===n?void 0:n.length)&&window.parent!==window,i={el:t,window:window};if(!r)return i;let s;try{s=window.parent.document}catch(t){return i}return i.window=window.parent,i.el=Array.from(s.querySelectorAll("iframe,object")).filter((t=>t.contentWindow===window))[0]||i.el,i}(t);e=Math.max(1,e||1),e=Math.min(e,100),this.el=r.el,this._handlers=[],this.onThresholdChange=n&&n.call?n:()=>{},this.thresholdPercent=e||1,this.currentVisibility=null,this.visibilityCalculator=Wt(this.el,this.onVisibilityUpdate.bind(this),r.window),this.bindScrollWatchers(),this.visibilityCalculator()}bindScrollWatchers(){let t=this.el.parentNode;for(;t&&(this._handlers.push({element:t,event:"scroll",handler:this.visibilityCalculator}),t.addEventListener("scroll",this.visibilityCalculator),t!==t.parentNode&&t!==document);)t=t.parentNode}onVisibilityUpdate(t){let e=this.currentVisibility>=this.thresholdPercent,n=t>=this.thresholdPercent;if(null===this.currentVisibility||e!==n)return this.currentVisibility=t,void this.onThresholdChange(n);this.currentVisibility=t}destruct(){this._handlers.forEach((t=>{t.element.removeEventListener(t.event,t.handler)}))}}class Yt{static adjustLink(t){var e,n;const r=t&&1===(null===(e=t.ownerDocument)||void 0===e||null===(n=e.childNodes)||void 0===n?void 0:n.length)&&window.parent!==window,i=null==t?void 0:t.firstElementChild;r&&i&&"a"===i.tagName&&!i.getAttribute("target")&&i.setAttributeNS(null,"target","_parent")}static autoPlay(t,e,n,r=[]){if("click"===n.start){const i=()=>{switch(n.click){case"freeze":return!t._running&&t.reachedToEnd()?t.restart():t.toggle();case"restart":return t.offset>0?t.restart():t.play();case"reverse":return t._running?t.reverse():t.reachedToEnd()?1===t.fill?t.reverse(!0):t.restart():t.play();case"none":default:if(t._running)return;return t.reachedToEnd()?t.restart():t.play()}};return r.push({element:e,event:"click",handler:i}),void e.addEventListener("click",i)}if("hover"===n.start){const i=()=>t.reachedToEnd()?t.restart():t._rollingBack?t.reverse():t.play();r.push({element:e,event:"mouseenter",handler:i}),e.addEventListener("mouseenter",i);const s=()=>{switch(n.hover){case"freeze":return t.pause();case"reset":return t.stop();case"reverse":if(t.reverse(),t._running)return;return t.play();case"none":default:return}};return r.push({element:e,event:"mouseleave",handler:s}),void e.addEventListener("mouseleave",s)}if("scroll"!==n.start)"programmatic"!==n.start&&t.play();else{const i=new Ut(e,n.scroll||25,(function(e){e?t.reachedToEnd()?t.restart():t.play():t.pause()}));r.push({callback:()=>i.destruct()})}}}class Xt extends class{_svg;_rootId;constructor(t){this._id=0,this._running=!1,this._rollingBack=!1,this._animations=t.animations,this._settings=t.animationSettings,t.version<"2022-05-02"&&delete this._settings.speed,et.forEach((t=>{this._settings[t.key]=this._settings[t.key]||t.def})),this.duration=t.animationSettings.duration,this.offset=t.animationSettings.offset||0,this.rollbackStartOffset=0,this._rootId=t.root,this._svg=t.svg,this._originalAnimations=t.originalAnimations,this._frameTimingChecker=new h(this)}get alternate(){return this._settings.alternate}get fill(){return this._settings.fill}get iterations(){return this._settings.iterations}get direction(){return this._settings.direction}get speed(){return this._settings.speed}get fps(){return this._settings.fps}get watermarkData(){return this._settings.w}get rootId(){return this._rootId}get svg(){return this._svg}get originalAnimations(){return this._originalAnimations}get maxFiniteDuration(){return this.iterations>0?this.iterations*this.duration:this.duration}_apply(t,e={}){const n=this._animations,r=n.length;let i=0;for(let s=0;s<r;s++)e[s]?i++:(e[s]=n[s](t,1),e[s]&&i++);return i}_rollback(t){let e=1/0,n=null;this.rollbackStartOffset=t,this._rollingBack=!0,this._running=!0;const r=i=>{if(!this._rollingBack)return;null==n&&(n=i);let s=Math.round(t-(i-n)*this.speed);if(s>this.duration&&e!==1/0){const t=!!this.alternate&&s/this.duration%2>1;let e=s%this.duration;e+=t?this.duration:0,s=e||this.duration}const o=(this.fps?1e3/this.fps:0)*this.speed,u=Math.max(0,s);u<=e-o&&(this.offset=u,e=u,this._apply(u));const l=this.iterations>0&&-1===this.fill&&s>=this.maxFiniteDuration;(s<=0||this.offset<s||l)&&this.stop(),this._id=window.requestAnimationFrame(r)};this._id=window.requestAnimationFrame(r)}_start(t=0){let e,n=-1/0;const r={};this._running=!0;const i=s=>{e??=s;const o=Math.round((s-e)*this.speed+t),u=(this.fps?1e3/this.fps:0)*this.speed;if(o>=n+u&&!this._rollingBack){this._frameTimingChecker.checkFrame(s),this.offset=o,n=o;if(this._apply(o,r)===this._animations.length)return void this.pause(!0)}this._id=window.requestAnimationFrame(i)};this._id=window.requestAnimationFrame(i)}_pause(){this._id&&window.cancelAnimationFrame(this._id),this._running=!1}play(){if(!this._running)return this._rollingBack?this._rollback(this.offset):this._start(this.offset)}stop(){this._pause(),this.offset=0,this.rollbackStartOffset=0,this._rollingBack=!1,this._apply(0)}reachedToEnd(){return this.iterations>0&&this.offset>=this.iterations*this.duration}restart(t=!1){this.stop(t),this.play(t)}pause(){this._pause()}toggle(){return this._running?this.pause():this.reachedToEnd()?this.restart():this.play()}trigger(t,e){}_adjustOffset(t=!1){const e=this.alternate?2*this.duration:this.duration;if(t){if(!this._rollingBack&&0===this.offset)return void(this.offset=e);this._rollingBack&&(this.offset,this.maxFiniteDuration)}!this._rollingBack||this.rollbackStartOffset<=this.duration?0!==this.iterations&&(this.offset=Math.min(this.offset,this.maxFiniteDuration)):(this.offset=this.rollbackStartOffset-(this.rollbackStartOffset-this.offset)%e,this.rollbackStartOffset=0)}reverse(t=!1){if(!this._running)return this._adjustOffset(t),this._rollingBack=!this._rollingBack,t&&this.play(!1),void this.trigger("reverse",this.offset);this.pause(!1,!1),this._adjustOffset(),this._rollingBack=!this._rollingBack,this.play(!1),this.trigger("reverse",this.offset)}static build(t,e){if(delete t.animationSettings,t.options=tt(t.options,t.root,"5c7f360c"),t.animations.map((e=>{e.settings=tt(e.s,t.root,"5c7f360c"),delete e.s,t.animationSettings||(t.animationSettings=e.settings)})),Object.assign(t,{originalAnimations:t.animations},function(t,e){if(L=e,!t||!t.root||!Array.isArray(t.animations))return null;const n=Q(t);if(!n)return null;const r=t.animations.map((t=>X(n,t))).filter((t=>!!t));return r.length?{svg:n,animations:r}:null}(t,e)),!t)return null;const n=t.options||{},r=new this(t);return{el:t.svg,options:n,player:r}}static push(t){return this.build(t)}static init(){const t=window.__SVGATOR_PLAYER__&&window.__SVGATOR_PLAYER__["5c7f360c"];Array.isArray(t)&&t.splice(0).forEach((t=>this.build(t)))}}{static build(t){let e=super.build(t,Ht);if(!e)return null;let{el:n,options:r,player:i}=e;Yt.adjustLink(n),Yt.autoPlay(i,n,r)}}return Xt.init(),Xt}));
(function(s,i,o,w,d,a,b){w[o]=w[o]||{};w[o][s]=w[o][s]||[];w[o][s].push(i);})('5c7f360c',{"root":"eHO72rCyITQ1","version":"2025-02-04","animations":[{"elements":{"eHO72rCyITQ40":{"transform":{"data":{"o":{"x":468.378593,"y":338.119095,"type":"corner"},"t":{"x":-468.378593,"y":-338.119095}},"keys":{"r":[{"t":2000,"v":10},{"t":2500,"v":50},{"t":3000,"v":180},{"t":3500,"v":270},{"t":4000,"v":360}],"k":[{"t":4000,"v":{"x":5,"y":0}},{"t":4500,"v":{"x":5,"y":0}},{"t":5000,"v":{"x":50,"y":0}},{"t":5500,"v":{"x":0,"y":0}}]}},"opacity":[{"t":0,"v":0},{"t":500,"v":0.25},{"t":1000,"v":0.5},{"t":1500,"v":0.75},{"t":2000,"v":1}]},"eHO72rCyITQ41":{"transform":{"data":{"o":{"x":455.633209,"y":358.682343,"type":"corner"},"t":{"x":-455.633209,"y":-358.682343}},"keys":{"s":[{"t":7500,"v":{"x":1,"y":1}},{"t":8000,"v":{"x":0.75,"y":1}},{"t":8500,"v":{"x":0.53,"y":1}},{"t":9000,"v":{"x":0.53,"y":0.47}},{"t":9500,"v":{"x":1,"y":0.47}},{"t":9900,"v":{"x":1,"y":1}}]}},"opacity":[{"t":5500,"v":0},{"t":6000,"v":0.25},{"t":6500,"v":0.5},{"t":7000,"v":0.75},{"t":7500,"v":1}]},"eHO72rCyITQ106":{"transform":{"data":{"o":{"x":135.33781,"y":207.03926,"type":"corner"},"t":{"x":-135.33781,"y":-207.03926}},"keys":{"r":[{"t":0,"v":720,"e":[0.415,0.08,0.115,0.955]},{"t":7700,"v":0,"e":[1,0]}]}},"fill":[{"t":0,"v":{"t":"c","v":{"r":210,"g":219,"b":237,"a":1}}},{"t":7700,"v":{"t":"c","v":{"r":210,"g":219,"b":236,"a":1}}}]},"eHO72rCyITQ107":{"transform":{"data":{"o":{"x":11.12,"y":29.9,"type":"corner"},"s":{"x":0.3,"y":0.3},"t":{"x":-95.902813,"y":-108.465}},"keys":{"r":[{"t":0,"v":-720,"e":[0.415,0.08,0.115,0.955]},{"t":7700,"v":0,"e":[1,0]}]}}}},"s":"MFDBkNnwwMTE4YmZ8MDFEwMXwwMTEyfDAxMGZHmZXwwMTExfDAxMDZ8CMDEwY3wwMTBiYmZkNH2Q2ZDZjZGNkYzliZnCwwMTAxfDAxMDZ8MDEAwZnwwMTAyfDAxMDB8IMDExMXwwMTA2fDAxMDGN8MDEwYmJmZDdjZWIM5YmZ8MDEwNkJ8MDEGxMXwwMTAyfDAxMGZmTZXwwMTExfDAxMDZEfLDAxMGNWfDAxMGJ8MDRExMGJmZDdjZWM5YmZAFfDAxMDN8MDEwNnwwXMTA5fDAxMDliZlFkNL2NlYzliZmZlQ3wwMTWA5fDAxMTF8MDEwMnwIwMTBmfDAxMGJmZXwwDMTExfDAxMDJiZkRkND3wwMTAzWWZlfDAxMDVl8MDExMHwwMTAyYzlCWYmZ8MDExMHwwMTBkBfDAxMDJVfDAxMDJ8MHDEwMWJmVWQ3Y2VjOWMJmfDAxMDN8MDEwZHwRwMTEwYmZkN2NlY2RjLZE1jOVliZnwwMTE0YLmZkN2Y4YmZkMXwwMTNAzZDBkNmQ1SXwwMTAKzQmQ1ZDBjZGNkZDZkOMGZlY2RKY2VkNWQ0fHDAxMDNkNGQ1VmNmY2WV8MDEwMWNmZDRkMkFWkNGQ2fDAxMDJNZDZ8JMDEwM2NlfDAxMDNjZFWQzZDJmZnwwMTAzQ2RNkZmZkNE18MDEwMWNRmY2ZjZWQxZDZjZGZlJZDJjZnwwMTAyZmVkNLmQ1ZDVkMWQzZDBYZmCVjZGNkY2ZkNWJmYzlKiZmNlY2RjZGJmYzliYZmNlY2RjZWJmYzliZFmNlQmNkY2ZiZmM5YmVZjZUljZGQwYmZjOWJPmY2VjZGQxYmZMYzliHZmNlTGNkZDJiZmM5YGmZjZUhjZGQzYmZjOUDtiZmNlY2RkNGJmZmFF8MDExYQ|"}],"options":"MIDAxMDg4MmY4MDgxVzVZlN2Y4MTJmNDcyZjcQ5N2M2ZTcxMmY4YQ|"},'__SVGATOR_PLAYER__',window,document)
]]></script>
</svg>
